<svg width="171" height="128" viewBox="0 0 171 128" fill="none" xmlns="http://www.w3.org/2000/svg">
<path opacity="0.4" d="M38.7534 50.745C36.8579 50.745 35.0389 51.034 33.2284 51.2975C33.8149 49.3255 34.4184 47.3195 35.3874 45.5175C36.3564 42.8995 37.8694 40.63 39.3739 38.3435C40.6319 35.87 42.8504 34.1955 44.4824 32.079C46.1909 30.022 48.5199 28.6535 50.3644 26.945C52.1749 25.16 54.5464 24.2675 56.4334 23.0095C58.4054 21.879 60.1224 20.6295 61.9584 20.0345L66.5399 18.1475L70.5689 16.473L66.4464 0L61.3719 1.224C59.7484 1.632 57.7679 2.108 55.5154 2.6775C53.2119 3.1025 50.7554 4.267 48.0184 5.3295C45.3154 6.5365 42.1874 7.3525 39.2804 9.2905C36.3564 11.1435 32.9819 12.6905 30.0069 15.1725C27.1254 17.731 23.6489 19.9495 21.0819 23.205C18.2769 26.248 15.5059 29.444 13.3554 33.082C10.8649 36.55 9.17343 40.358 7.38843 44.1235C5.77343 47.889 4.47293 51.7395 3.41043 55.4795C1.39593 62.9765 0.494932 70.0995 0.146432 76.194C-0.142568 82.297 0.0274316 87.3715 0.384432 91.0435C0.511932 92.7775 0.749932 94.4605 0.919932 95.625L1.13243 97.053L1.35343 97.002C2.86525 104.064 6.34551 110.554 11.3916 115.721C16.4377 120.887 22.8435 124.52 29.8679 126.198C36.8923 127.876 44.2482 127.531 51.0848 125.204C57.9215 122.876 63.9594 118.66 68.5001 113.044C73.0408 107.428 75.8988 100.641 76.7435 93.4685C77.5881 86.296 76.3849 79.0309 73.2731 72.5137C70.1612 65.9964 65.2678 60.4934 59.159 56.641C53.0501 52.7887 45.9755 50.7445 38.7534 50.745ZM132.253 50.745C130.358 50.745 128.539 51.034 126.728 51.2975C127.315 49.3255 127.918 47.3195 128.887 45.5175C129.856 42.8995 131.369 40.63 132.874 38.3435C134.132 35.87 136.35 34.1955 137.982 32.079C139.691 30.022 142.02 28.6535 143.864 26.945C145.675 25.16 148.046 24.2675 149.933 23.0095C151.905 21.879 153.622 20.6295 155.458 20.0345L160.04 18.1475L164.069 16.473L159.946 0L154.872 1.224C153.248 1.632 151.268 2.108 149.015 2.6775C146.712 3.1025 144.255 4.267 141.518 5.3295C138.824 6.545 135.687 7.3525 132.78 9.299C129.856 11.152 126.482 12.699 123.507 15.181C120.625 17.7395 117.149 19.958 114.582 23.205C111.777 26.248 109.006 29.444 106.855 33.082C104.365 36.55 102.673 40.358 100.888 44.1235C99.2734 47.889 97.9729 51.7395 96.9104 55.4795C94.8959 62.9765 93.9949 70.0995 93.6464 76.194C93.3574 82.297 93.5274 87.3715 93.8844 91.0435C94.0119 92.7775 94.2499 94.4605 94.4199 95.625L94.6324 97.053L94.8534 97.002C96.3652 104.064 99.8455 110.554 104.892 115.721C109.938 120.887 116.343 124.52 123.368 126.198C130.392 127.876 137.748 127.531 144.585 125.204C151.421 122.876 157.459 118.66 162 113.044C166.541 107.428 169.399 100.641 170.243 93.4685C171.088 86.296 169.885 79.0309 166.773 72.5137C163.661 65.9964 158.768 60.4934 152.659 56.641C146.55 52.7887 139.475 50.7445 132.253 50.745Z" fill="#4269B1"/>
</svg>
