<svg width="84" height="84" viewBox="0 0 84 84" fill="none" xmlns="http://www.w3.org/2000/svg">
<path fill-rule="evenodd" clip-rule="evenodd" d="M42 0.75C19.2188 0.75 0.75 19.2188 0.75 42C0.75 64.7812 19.2188 83.25 42 83.25C64.7812 83.25 83.25 64.7812 83.25 42C83.25 19.2188 64.7812 0.75 42 0.75ZM59.88 35.025C60.2092 34.6487 60.4599 34.2103 60.6172 33.7356C60.7745 33.261 60.8353 32.7597 60.796 32.2612C60.7567 31.7627 60.6181 31.2771 60.3884 30.833C60.1587 30.3888 59.8424 29.9951 59.4583 29.675C59.0742 29.3549 58.6299 29.1149 58.1516 28.969C57.6733 28.8231 57.1707 28.7744 56.6733 28.8256C56.1759 28.8769 55.6938 29.0271 55.2553 29.2674C54.8168 29.5077 54.4308 29.8333 54.12 30.225L37.995 49.5713L29.6513 41.2238C28.944 40.5407 27.9967 40.1627 27.0135 40.1712C26.0303 40.1798 25.0897 40.5742 24.3944 41.2694C23.6992 41.9647 23.3048 42.9053 23.2962 43.8885C23.2877 44.8717 23.6657 45.819 24.3488 46.5263L35.5988 57.7763C35.9672 58.1445 36.4084 58.4319 36.8941 58.6202C37.3798 58.8085 37.8994 58.8936 38.4198 58.8699C38.9402 58.8463 39.4499 58.7145 39.9165 58.4829C40.3832 58.2514 40.7964 57.9251 41.13 57.525L59.88 35.025Z" fill="#4ECB71"/>
</svg>
