<svg version="1.1" id="Layer_1" xmlns="http://www.w3.org/2000/svg" xmlns:xlink="http://www.w3.org/1999/xlink" x="0px" y="0px"
	 width="100%" viewBox="0 0 3941 2018" enable-background="new 0 0 3941 2018" xml:space="preserve">
<path fill="#FFFFFF" opacity="1.000000" stroke="none" 
	d="
M2944.000000,2020.000000 
	C1962.666870,2020.000000 982.333679,2020.000000 2.000395,2020.000000 
	C2.000263,1347.333618 2.000263,674.667236 2.000132,2.000665 
	C1315.999390,2.000443 2629.998779,2.000443 3943.998535,2.000222 
	C3943.999023,674.666016 3943.999023,1347.332031 3943.999512,2019.999023 
	C3611.000000,2020.000000 3278.000000,2020.000000 2944.000000,2020.000000 
M760.999939,1992.536255 
	C1742.571777,1992.379028 2724.143555,1992.222046 3705.715332,1992.046509 
	C3705.999512,1992.046509 3706.319092,1991.814209 3706.558350,1991.614014 
	C3706.808594,1991.404541 3706.980957,1991.102173 3707.156006,1990.880493 
	C3707.156006,1796.036743 3707.156006,1601.233154 3707.156006,1406.309204 
	C2508.735352,1406.309204 1310.999146,1406.309204 112.842606,1406.309204 
	C112.842606,1601.736938 112.842606,1796.548218 112.842606,1992.536499 
	C328.581787,1992.536499 543.790833,1992.536499 760.999939,1992.536255 
M1285.000000,1338.307983 
	C1380.865967,1338.307983 1476.732056,1338.307983 1572.894775,1338.307983 
	C1572.894775,1318.739136 1572.894775,1300.583496 1572.894775,1281.799561 
	C1567.793335,1281.239258 1563.217651,1280.579834 1558.618530,1280.258179 
	C1536.646118,1278.721313 1514.885742,1275.763062 1493.605225,1269.995239 
	C1444.192017,1256.601929 1413.421265,1224.449219 1400.012817,1175.504639 
	C1393.371094,1151.261108 1391.696899,1126.319092 1391.697876,1101.251221 
	C1391.708984,832.586243 1391.705811,563.921204 1391.706421,295.256226 
	C1391.706543,292.134094 1391.706543,289.011963 1391.706543,285.889862 
	C1392.352051,285.806885 1392.997559,285.723938 1393.643066,285.640961 
	C1525.581421,636.389954 1657.519897,987.138916 1789.467896,1337.913330 
	C1807.258789,1337.913330 1824.170654,1337.913330 1841.776733,1337.913330 
	C1964.603271,985.231506 2087.382812,632.684204 2210.162598,280.136932 
	C2210.723389,280.298492 2211.284424,280.460052 2211.845215,280.621613 
	C2211.845215,282.925598 2211.845459,285.229553 2211.845459,287.533539 
	C2211.846680,599.864929 2211.850342,912.196289 2211.815918,1224.527710 
	C2211.815674,1228.172974 2211.725098,1231.899414 2211.000732,1235.450073 
	C2206.607422,1256.986450 2192.333252,1269.350220 2172.340576,1275.927124 
	C2157.293701,1280.877075 2141.603027,1281.587158 2125.918213,1281.657227 
	C2099.585693,1281.775024 2073.252197,1281.673706 2046.918945,1281.715576 
	C2043.421753,1281.721069 2039.924927,1282.024780 2035.998413,1282.210815 
	C2035.998413,1292.396118 2035.971802,1301.370850 2036.005737,1310.345337 
	C2036.040405,1319.523926 2036.134399,1328.702148 2036.201416,1337.744385 
	C2207.531982,1337.744385 2377.406250,1337.744385 2547.765137,1337.744385 
	C2547.765137,1319.043579 2547.765137,1300.907104 2547.765137,1282.144165 
	C2544.031250,1281.979126 2540.786377,1281.716675 2537.541260,1281.711426 
	C2515.208008,1281.675171 2492.861328,1282.167236 2470.545898,1281.536133 
	C2453.938965,1281.066284 2437.175049,1280.355835 2420.829590,1277.648193 
	C2387.790527,1272.174927 2371.860840,1252.541504 2371.880859,1223.353638 
	C2372.083252,928.689026 2371.992920,634.024109 2372.082275,339.359314 
	C2372.084229,332.405823 2372.838623,325.393768 2373.899658,318.510376 
	C2377.059326,298.014221 2388.246094,284.030548 2408.917969,279.806549 
	C2422.543457,277.022400 2436.541260,275.128571 2450.425781,274.739532 
	C2479.403564,273.927643 2508.416748,274.390747 2537.415283,274.289825 
	C2540.917480,274.277649 2544.418457,274.017395 2548.297607,273.856445 
	C2548.297607,263.627716 2548.317383,254.643265 2548.291748,245.658936 
	C2548.265625,236.481506 2548.194824,227.304214 2548.142822,218.015564 
	C2420.048828,218.015564 2293.435547,218.015564 2165.999023,218.015564 
	C2063.687744,511.813690 1961.387207,805.580750 1859.086670,1099.347778 
	C1858.382080,1099.348755 1857.677490,1099.349731 1856.972900,1099.350708 
	C1745.927368,805.543091 1634.881958,511.735535 1524.009888,218.386520 
	C1500.002075,216.185196 1157.768433,217.197418 1150.000000,219.552994 
	C1150.000000,228.349792 1149.973511,237.319260 1150.007324,246.288483 
	C1150.042114,255.478180 1150.136108,264.667664 1150.207520,274.307983 
	C1155.255981,274.307983 1158.907227,274.307892 1162.558472,274.307983 
	C1188.224976,274.308685 1213.892944,274.141602 1239.557495,274.367462 
	C1257.539062,274.525726 1275.553223,274.915314 1293.071045,279.800842 
	C1314.550537,285.791351 1326.186401,299.925293 1327.891724,322.072449 
	C1328.121704,325.059174 1328.135254,328.067749 1328.135376,331.066223 
	C1328.145264,589.731262 1328.149414,848.396362 1328.135498,1107.061401 
	C1328.134155,1131.453979 1326.089111,1155.649170 1320.078979,1179.359009 
	C1318.201904,1186.763916 1315.878662,1194.094116 1313.208618,1201.252930 
	C1301.279663,1233.234863 1277.562012,1252.663208 1246.110107,1263.793701 
	C1219.545288,1273.194946 1192.046143,1277.820435 1164.083008,1280.208252 
	C1159.558716,1280.594727 1155.062256,1281.308228 1150.617798,1281.862427 
	C1150.617798,1301.024658 1150.617798,1319.203369 1150.617798,1338.308228 
	C1195.152588,1338.308228 1239.076294,1338.308228 1285.000000,1338.307983 
M3627.745117,1036.673584 
	C3628.677734,998.189636 3631.954590,959.774353 3632.397217,920.893555 
	C3613.628906,920.893555 3596.135498,920.893555 3578.539795,920.893555 
	C3578.103516,923.064209 3577.743652,924.676758 3577.457764,926.302307 
	C3572.962891,951.862061 3569.337158,977.611206 3563.806152,1002.944397 
	C3553.096191,1051.998169 3536.655518,1099.047241 3510.751709,1142.392578 
	C3484.038086,1187.092896 3448.951416,1223.241699 3402.544678,1247.706543 
	C3358.251709,1271.057129 3310.489502,1280.617310 3260.972900,1281.310181 
	C3201.990479,1282.135620 3142.989258,1281.709473 3083.996826,1281.610107 
	C3074.359375,1281.593872 3064.669189,1280.922974 3055.098145,1279.768311 
	C3023.314697,1275.934204 3008.302734,1258.926025 3008.300049,1227.217407 
	C3008.287598,1083.897827 3008.293945,940.578186 3008.293945,797.258545 
	C3008.293945,793.704651 3008.293945,790.150696 3008.293945,786.796814 
	C3010.460449,786.249756 3011.402100,785.802124 3012.342285,785.804993 
	C3046.335693,785.908691 3080.355713,785.280151 3114.313721,786.451904 
	C3139.157227,787.309265 3162.929932,794.110779 3184.979736,806.027222 
	C3223.284424,826.728516 3247.657471,858.900452 3261.717285,899.518799 
	C3272.356934,930.257446 3277.538330,962.052490 3280.038574,994.362671 
	C3280.826416,1004.545044 3281.554443,1014.732056 3282.312012,1024.942505 
	C3299.979736,1024.942505 3316.758301,1024.942505 3333.462158,1024.942505 
	C3335.637207,1002.826111 3334.605225,513.952393 3332.435547,506.859131 
	C3315.906006,506.859131 3299.372559,506.859131 3282.305176,506.859131 
	C3281.533691,516.255798 3280.824219,525.156677 3280.068115,534.053589 
	C3277.548340,563.701599 3272.323486,592.803833 3261.884277,620.771729 
	C3235.898193,690.390991 3180.481445,730.011841 3106.498047,731.433594 
	C3076.178955,732.016357 3045.841064,731.654175 3015.511719,731.652039 
	C3013.310547,731.651917 3011.109131,731.079895 3008.293945,730.688354 
	C3008.293945,727.205566 3008.293945,724.249939 3008.293945,721.294250 
	C3008.295410,591.973267 3008.264648,462.652252 3008.386475,333.331421 
	C3008.393066,326.380402 3009.111084,319.315918 3010.479736,312.501495 
	C3014.721436,291.384308 3028.352539,278.740631 3049.872559,275.763733 
	C3056.772949,274.809204 3063.798828,274.377075 3070.768066,274.366547 
	C3137.761719,274.265533 3204.756592,274.074341 3271.747803,274.464691 
	C3289.015381,274.565308 3306.399414,275.670166 3323.508789,277.963318 
	C3369.480957,284.125031 3409.278076,303.587036 3442.851562,335.728241 
	C3468.089355,359.889130 3485.727539,389.118469 3499.814941,420.695618 
	C3518.490723,462.557343 3530.663086,506.457031 3540.043213,551.194458 
	C3543.098877,565.768372 3545.891113,580.397461 3548.810059,595.033142 
	C3565.986328,595.033142 3582.471191,595.033142 3599.531738,595.033142 
	C3592.441895,469.098358 3585.391602,343.867493 3578.324463,218.332794 
	C3281.778809,218.332794 2986.354492,218.332794 2690.618164,218.332794 
	C2690.618164,237.107956 2690.618164,255.239807 2690.618164,274.305420 
	C2694.483643,274.305420 2697.740479,274.305359 2700.997070,274.305420 
	C2725.328125,274.305695 2749.660400,274.155243 2773.989258,274.385071 
	C2782.961670,274.469818 2791.979980,275.007416 2800.882812,276.106476 
	C2827.598145,279.404602 2842.344727,293.693512 2846.429443,319.998291 
	C2847.293457,325.561768 2847.654053,331.257965 2847.655029,336.893127 
	C2847.711670,629.531799 2847.704834,922.170532 2847.702881,1214.809204 
	C2847.702881,1217.808838 2847.787598,1220.812866 2847.660889,1223.807617 
	C2846.405029,1253.469727 2831.417969,1272.130005 2802.437500,1277.717896 
	C2788.476074,1280.409912 2774.023438,1281.090454 2759.757324,1281.539673 
	C2740.112061,1282.157959 2720.432617,1281.673950 2700.767822,1281.715088 
	C2697.525879,1281.721802 2694.284424,1281.999390 2690.542969,1282.175415 
	C2690.542969,1300.935547 2690.542969,1319.067017 2690.542969,1337.593994 
	C2998.469482,1337.593994 3305.854492,1337.593994 3613.828613,1337.593994 
	C3618.475342,1237.470093 3623.090576,1138.027710 3627.745117,1036.673584 
M322.156738,303.131866 
	C289.861145,330.856110 261.594727,362.291016 237.518707,397.312134 
	C141.014786,537.687073 100.266335,693.006653 113.669907,862.680725 
	C117.943367,916.777771 129.381577,969.351990 148.328583,1020.174988 
	C179.524597,1103.854614 225.301056,1178.277588 291.678955,1238.738892 
	C372.654205,1312.496460 468.044952,1354.410645 577.265564,1364.268677 
	C623.929382,1368.480591 670.433350,1367.372437 716.547546,1358.320801 
	C834.372070,1335.193604 922.964172,1270.983276 983.257385,1167.562134 
	C1010.000000,1121.690430 1026.754395,1071.919556 1037.943604,1020.196228 
	C1042.859985,997.469910 1047.010498,974.604431 1049.092651,950.831543 
	C1031.108032,950.831543 1013.623596,950.831543 995.656982,950.831543 
	C993.083923,963.929382 990.737427,976.637878 988.077698,989.280457 
	C976.977966,1042.041138 960.431152,1092.871704 933.246460,1139.733154 
	C892.707153,1209.615601 835.123352,1259.471802 758.065063,1285.070068 
	C696.340454,1305.574585 633.215454,1307.487061 569.667236,1294.551025 
	C498.928314,1280.151245 442.687561,1242.952271 399.879822,1185.084229 
	C371.044769,1146.104736 350.778107,1102.837646 336.058960,1056.846558 
	C312.597229,983.538696 304.188995,907.901611 302.435272,831.403625 
	C301.029449,770.081055 303.491333,708.848389 309.664124,647.776306 
	C314.426208,600.661316 321.896271,554.049011 334.255890,508.300201 
	C350.808380,447.031799 376.581085,390.578705 420.378296,343.488739 
	C488.756653,269.969543 572.807129,242.921356 671.141846,259.425323 
	C724.294800,268.346222 769.415344,293.824768 808.855835,329.924072 
	C845.169678,363.161591 873.386841,402.499329 896.092834,445.990173 
	C922.402832,496.384186 941.760254,549.497070 957.986755,603.835266 
	C962.267334,618.169556 966.265442,632.588257 970.446106,647.152344 
	C987.361023,647.152344 1003.875244,647.152344 1020.849915,647.152344 
	C1021.041565,645.058533 1021.377625,643.463501 1021.303833,641.887695 
	C1019.730713,608.283813 1018.014404,574.686401 1016.522278,541.079041 
	C1013.685364,477.182434 1010.931580,413.282104 1008.221252,349.380005 
	C1006.541321,309.772736 1005.057312,270.157104 1003.371277,230.550110 
	C1002.894836,219.358719 1002.016174,208.184479 1001.277893,196.291702 
	C987.802673,196.291702 975.172791,196.712982 962.590515,196.121811 
	C955.853699,195.805298 952.571289,198.123062 949.730957,204.175949 
	C935.300659,234.927444 920.379944,265.448975 905.591431,296.031921 
	C904.329346,298.641968 902.776672,301.111542 901.170593,303.983063 
	C898.457092,302.116699 896.283936,300.613861 894.102600,299.123077 
	C877.326172,287.657715 860.826477,275.760315 843.723328,264.805023 
	C762.693298,212.902008 674.640137,187.919266 577.976562,195.680908 
	C541.920471,198.576035 506.759308,205.433899 472.584351,217.116730 
	C417.420441,235.974686 367.750641,264.599518 322.156738,303.131866 
z"/>
<path fill="#6B6B6B" opacity="1.000000" stroke="none" 
	d="
M759.999878,1992.536377 
	C543.790833,1992.536499 328.581787,1992.536499 112.842606,1992.536499 
	C112.842606,1796.548218 112.842606,1601.736938 112.842606,1406.309204 
	C1310.999146,1406.309204 2508.735352,1406.309204 3707.156006,1406.309204 
	C3707.156006,1601.233154 3707.156006,1796.036743 3707.156006,1990.880493 
	C3706.980957,1991.102173 3706.808594,1991.404541 3706.558350,1991.614014 
	C3706.319092,1991.814209 3705.999512,1992.046509 3705.715332,1992.046509 
	C2724.143555,1992.222046 1742.571777,1992.379028 759.999878,1992.536377 
M489.629578,1755.543823 
	C491.423859,1760.204102 493.224609,1764.862061 495.011230,1769.525269 
	C500.847748,1784.758057 507.018433,1799.874268 512.394836,1815.267822 
	C516.070862,1825.792725 512.713318,1832.049805 501.986237,1834.990356 
	C495.315796,1836.818848 488.254425,1837.468506 481.318756,1838.008667 
	C475.073059,1838.494995 468.759613,1838.111328 461.999329,1838.111328 
	C461.999329,1845.103149 461.999329,1851.157959 461.999329,1857.051270 
	C513.050110,1857.051270 563.233704,1857.051270 613.438110,1857.051270 
	C613.438110,1850.578003 613.438110,1844.783936 613.438110,1838.083008 
	C607.770142,1838.083008 602.798767,1838.359131 597.867859,1838.030273 
	C584.028381,1837.107300 573.913574,1830.646606 568.561157,1817.507690 
	C567.681885,1815.349121 566.888489,1813.155762 566.037781,1810.985474 
	C522.293579,1699.388184 478.549683,1587.791016 434.791077,1476.199463 
	C433.490814,1472.883667 432.035034,1469.628906 430.780334,1466.650879 
	C424.520752,1466.650879 419.257660,1466.650879 413.407593,1466.650879 
	C411.599335,1471.003174 409.778625,1475.240234 408.068939,1479.521606 
	C366.827240,1582.802246 325.670929,1686.117188 284.246277,1789.324341 
	C280.303772,1799.146729 275.198975,1808.604004 269.726868,1817.684082 
	C263.608978,1827.835693 254.076019,1833.896362 242.405365,1836.241943 
	C236.634735,1837.401855 230.785095,1838.168701 224.281281,1839.225464 
	C224.281281,1842.506714 224.197845,1845.453613 224.304977,1848.393555 
	C224.409729,1851.267700 224.708832,1854.134888 224.910126,1856.837402 
	C240.029007,1858.692017 356.103973,1858.063843 363.718719,1856.019653 
	C363.718719,1853.232666 363.807922,1850.265991 363.693146,1847.307251 
	C363.582550,1844.456787 363.261292,1841.614502 362.976410,1838.069702 
	C356.096252,1838.069702 350.044769,1838.684570 344.175629,1837.912842 
	C336.986176,1836.967529 329.544769,1835.825928 322.933075,1833.051514 
	C310.268188,1827.737061 301.896851,1815.189453 305.311218,1799.941772 
	C310.582367,1776.401855 321.285370,1754.940063 328.999664,1732.351562 
	C379.910278,1732.351562 430.061188,1732.351562 480.414886,1732.351562 
	C483.411957,1739.919922 486.222900,1747.018311 489.629578,1755.543823 
M2103.023682,1613.958252 
	C2100.148682,1614.216431 2097.273682,1614.474487 2093.818848,1614.784668 
	C2093.818848,1618.208862 2093.718994,1620.841919 2093.847656,1623.463745 
	C2093.972168,1625.999023 2094.332031,1628.522583 2094.678223,1631.934814 
	C2100.559082,1631.934814 2105.862061,1631.619873 2111.116211,1631.993164 
	C2127.702637,1633.170898 2137.311035,1642.973877 2138.338135,1659.488159 
	C2138.524170,1662.476685 2138.486572,1665.481445 2138.488037,1668.478760 
	C2138.499023,1690.133789 2138.493652,1711.788696 2138.493164,1733.443726 
	C2138.492432,1761.095459 2138.538818,1788.747314 2138.471191,1816.398926 
	C2138.438232,1829.811768 2132.242188,1836.659424 2118.895996,1837.924683 
	C2113.936035,1838.394897 2108.908447,1838.109863 2103.917480,1838.314453 
	C2101.405029,1838.417480 2098.906006,1838.845581 2096.520996,1839.113159 
	C2096.520996,1845.541626 2096.520996,1851.084839 2096.520996,1857.164551 
	C2139.220947,1857.164551 2181.373779,1857.164551 2223.983887,1857.164551 
	C2223.983887,1850.879517 2223.983887,1844.835938 2223.983887,1838.122070 
	C2216.799316,1838.122070 2210.478760,1838.355591 2204.180664,1838.076050 
	C2188.523438,1837.381348 2181.984619,1830.667114 2181.914062,1814.812622 
	C2181.771729,1782.830566 2181.792236,1750.847046 2181.919189,1718.864746 
	C2181.974121,1705.052612 2184.850098,1691.743896 2190.606445,1679.158081 
	C2203.349854,1651.294556 2228.533936,1636.198242 2256.854004,1639.198242 
	C2277.561279,1641.391724 2291.477539,1652.619385 2298.109375,1671.926758 
	C2301.307373,1681.237549 2303.429199,1691.381104 2303.594238,1701.188721 
	C2304.244385,1739.823608 2304.015381,1778.475220 2303.907471,1817.119995 
	C2303.876221,1828.291870 2298.856201,1834.342163 2287.889893,1836.808838 
	C2283.393311,1837.820312 2278.663818,1837.845459 2274.030273,1838.184448 
	C2270.147705,1838.468750 2266.250977,1838.557129 2262.421143,1838.729492 
	C2262.421143,1845.419434 2262.421143,1851.212646 2262.421143,1857.158936 
	C2304.995361,1857.158936 2346.814941,1857.158936 2389.106445,1857.158936 
	C2389.106445,1850.817505 2389.106445,1845.040283 2389.106445,1839.718994 
	C2388.234863,1839.075439 2387.979492,1838.722900 2387.712158,1838.713501 
	C2381.396484,1838.491577 2375.074951,1838.399902 2368.763672,1838.096191 
	C2354.308350,1837.400757 2348.356689,1831.909058 2346.654297,1817.601318 
	C2346.262451,1814.309204 2346.345947,1810.951294 2346.343994,1807.623657 
	C2346.322998,1769.311035 2346.306885,1730.998291 2346.334473,1692.685669 
	C2346.348145,1673.535034 2341.386230,1655.819092 2331.025146,1639.708618 
	C2321.104492,1624.282959 2306.892578,1615.034424 2288.892090,1612.055664 
	C2248.492188,1605.370361 2215.443359,1618.065308 2190.063232,1650.335693 
	C2187.680664,1653.365234 2185.415039,1656.486816 2182.319336,1660.595215 
	C2179.689941,1642.889648 2177.310059,1626.862915 2174.837158,1610.212280 
	C2150.647217,1611.473022 2127.758301,1612.666016 2103.023682,1613.958252 
M2748.546143,1613.752930 
	C2743.645508,1613.752930 2738.744873,1613.752930 2733.336426,1613.752930 
	C2733.336426,1620.709351 2733.336426,1626.188110 2733.336426,1632.403931 
	C2738.699951,1632.902344 2743.621094,1633.322632 2748.534424,1633.822632 
	C2767.900635,1635.793091 2775.789062,1644.377930 2775.808350,1663.628540 
	C2775.841797,1697.281616 2775.869629,1730.934814 2775.795410,1764.587769 
	C2775.764404,1778.630859 2776.668213,1792.565552 2780.276367,1806.180664 
	C2783.468506,1818.226318 2788.328857,1829.481323 2797.356201,1838.470215 
	C2819.158936,1860.179810 2845.205566,1866.226685 2874.554443,1858.707520 
	C2897.293701,1852.881836 2914.835205,1838.630493 2930.938232,1822.337158 
	C2934.118896,1819.118530 2937.186523,1815.788452 2941.531738,1811.222168 
	C2943.502930,1827.811890 2945.241699,1842.446777 2947.067871,1857.816650 
	C2974.462158,1857.050049 3000.991455,1856.307617 3028.072266,1855.549683 
	C3028.072266,1849.678467 3028.072266,1844.254150 3028.072266,1838.126709 
	C3021.645752,1838.126709 3015.990479,1838.364990 3010.361328,1838.081665 
	C2993.988525,1837.257812 2984.585938,1827.651611 2984.041992,1811.441162 
	C2983.963867,1809.111328 2984.031250,1806.776733 2984.031250,1804.444336 
	C2984.031494,1743.468872 2984.039062,1682.493530 2984.013428,1621.518066 
	C2984.011963,1617.996216 2983.741455,1614.474365 2983.567139,1610.245972 
	C2954.698730,1611.665894 2926.919922,1613.032227 2898.857910,1614.412476 
	C2898.857910,1620.878540 2898.857910,1626.347412 2898.857910,1632.232178 
	C2905.612305,1633.066162 2911.933105,1633.455078 2918.087158,1634.680664 
	C2935.463867,1638.141113 2941.766357,1645.967896 2941.802979,1663.722290 
	C2941.859375,1691.044434 2941.947754,1718.367920 2941.737061,1745.688599 
	C2941.675537,1753.651489 2941.290771,1761.719360 2939.934082,1769.544922 
	C2935.734863,1793.767822 2923.729492,1813.215088 2902.141846,1825.598877 
	C2867.127930,1845.684448 2827.757568,1827.839966 2820.576904,1788.790405 
	C2819.322510,1781.968262 2819.287109,1774.859497 2819.272217,1767.881836 
	C2819.167969,1719.234985 2819.217041,1670.587891 2819.217041,1621.940796 
	C2819.217041,1618.368896 2819.217041,1614.796997 2819.217041,1610.198730 
	C2795.447510,1611.402344 2772.918457,1612.543091 2748.546143,1613.752930 
M1517.309937,1761.542969 
	C1518.218018,1766.451050 1518.911133,1771.410400 1520.067505,1776.259155 
	C1531.841919,1825.630371 1579.513550,1876.580322 1655.543945,1862.243774 
	C1688.427979,1856.042969 1711.834839,1836.241943 1729.877075,1809.171997 
	C1733.678833,1803.467896 1736.861450,1797.350952 1740.677124,1790.829590 
	C1734.464111,1788.094727 1729.383179,1785.858154 1723.858521,1783.426147 
	C1721.568848,1787.080688 1719.846924,1790.269653 1717.711182,1793.152100 
	C1712.167969,1800.633789 1706.990967,1808.490356 1700.679077,1815.277832 
	C1686.556519,1830.464722 1669.176392,1839.658203 1648.131226,1840.962646 
	C1620.879639,1842.651978 1597.862427,1833.899414 1582.168091,1811.090088 
	C1567.418335,1789.653320 1565.671387,1764.653320 1565.341675,1738.230835 
	C1623.315063,1738.230835 1680.430664,1738.230835 1737.832886,1738.230835 
	C1738.865723,1722.617432 1737.085571,1708.434570 1733.716553,1694.548706 
	C1715.952881,1621.333252 1655.745850,1597.675293 1600.084473,1612.226929 
	C1567.451172,1620.758301 1544.956543,1642.407837 1530.107422,1672.043091 
	C1516.229004,1699.740601 1514.001831,1729.437012 1517.309937,1761.542969 
M3486.003662,1837.781860 
	C3479.780029,1834.649780 3473.191650,1832.073486 3467.404297,1828.276245 
	C3452.839111,1818.719727 3444.112305,1804.841064 3439.574951,1788.172974 
	C3435.210205,1772.139404 3432.697754,1755.922852 3433.749756,1738.038574 
	C3491.590332,1738.038574 3548.657959,1738.038574 3605.878662,1738.038574 
	C3606.827148,1722.426147 3605.062988,1708.219360 3601.669434,1694.333008 
	C3584.015137,1622.094482 3524.508789,1597.483521 3467.993164,1612.254761 
	C3435.391602,1620.775635 3412.833008,1642.401123 3398.120850,1672.076416 
	C3383.422363,1701.723267 3381.220947,1733.337036 3385.930176,1765.650269 
	C3394.078613,1821.565918 3445.472412,1878.341919 3525.505859,1861.789307 
	C3565.583740,1853.500244 3590.073975,1826.111084 3608.559082,1790.796387 
	C3602.514648,1788.126953 3597.438477,1785.885376 3591.862061,1783.422729 
	C3589.609131,1787.020874 3587.899414,1790.214111 3585.756348,1793.083862 
	C3579.990723,1800.803711 3574.695801,1809.018555 3568.043457,1815.906250 
	C3545.741211,1838.997192 3518.629639,1845.955688 3486.003662,1837.781860 
M990.708496,1678.191406 
	C987.741150,1671.495728 984.563354,1664.884033 981.851746,1658.086426 
	C976.774719,1645.359131 980.631531,1638.092529 993.921692,1635.705933 
	C1001.076172,1634.421143 1008.378113,1633.957642 1016.227051,1633.052979 
	C1016.227051,1627.559692 1016.227051,1622.055786 1016.227051,1616.614136 
	C1003.439026,1614.793823 904.607666,1615.346313 897.320679,1617.273682 
	C897.320679,1622.417480 897.320679,1627.618530 897.320679,1632.823120 
	C898.720459,1633.251587 899.643616,1633.793335 900.555786,1633.775269 
	C918.339844,1633.424683 928.160583,1642.994263 935.106567,1658.677246 
	C964.628174,1725.332764 994.822510,1791.690308 1024.804321,1858.141724 
	C1025.735596,1860.205688 1027.028076,1862.106567 1027.914795,1863.665771 
	C1033.423706,1863.665771 1038.298950,1863.665771 1043.089844,1863.665771 
	C1059.579834,1825.505005 1075.824463,1787.926392 1092.056885,1750.342773 
	C1104.858643,1720.702515 1117.678467,1691.070068 1130.424927,1661.405884 
	C1136.487549,1647.297119 1146.484497,1637.958008 1161.806396,1634.814697 
	C1164.310425,1634.300903 1166.770630,1633.573120 1169.168823,1632.965088 
	C1169.168823,1627.117676 1169.168823,1621.925659 1169.168823,1616.844238 
	C1157.788208,1614.873901 1076.666626,1615.282227 1069.271240,1617.321167 
	C1069.271240,1622.476440 1069.271240,1627.698486 1069.271240,1633.037109 
	C1075.470093,1634.563965 1081.339966,1635.687378 1087.005127,1637.463989 
	C1105.724609,1643.334839 1109.700684,1651.933716 1102.196777,1669.689453 
	C1084.834351,1710.772095 1067.471436,1751.854614 1050.084961,1792.927124 
	C1049.128296,1795.187256 1047.955322,1797.355835 1046.016602,1801.353394 
	C1027.274414,1759.540527 1009.343811,1719.538330 990.708496,1678.191406 
z"/>
<path fill="#7F4E9E" opacity="1.000000" stroke="none" 
	d="
M1284.000000,1338.308105 
	C1239.076294,1338.308228 1195.152588,1338.308228 1150.617798,1338.308228 
	C1150.617798,1319.203369 1150.617798,1301.024658 1150.617798,1281.862427 
	C1155.062256,1281.308228 1159.558716,1280.594727 1164.083008,1280.208252 
	C1192.046143,1277.820435 1219.545288,1273.194946 1246.110107,1263.793701 
	C1277.562012,1252.663208 1301.279663,1233.234863 1313.208618,1201.252930 
	C1315.878662,1194.094116 1318.201904,1186.763916 1320.078979,1179.359009 
	C1326.089111,1155.649170 1328.134155,1131.453979 1328.135498,1107.061401 
	C1328.149414,848.396362 1328.145264,589.731262 1328.135376,331.066223 
	C1328.135254,328.067749 1328.121704,325.059174 1327.891724,322.072449 
	C1326.186401,299.925293 1314.550537,285.791351 1293.071045,279.800842 
	C1275.553223,274.915314 1257.539062,274.525726 1239.557495,274.367462 
	C1213.892944,274.141602 1188.224976,274.308685 1162.558472,274.307983 
	C1158.907227,274.307892 1155.255981,274.307983 1150.207520,274.307983 
	C1150.136108,264.667664 1150.042114,255.478180 1150.007324,246.288483 
	C1149.973511,237.319260 1150.000000,228.349792 1150.000000,219.552994 
	C1157.768433,217.197418 1500.002075,216.185196 1524.009888,218.386520 
	C1634.881958,511.735535 1745.927368,805.543091 1856.972900,1099.350708 
	C1857.677490,1099.349731 1858.382080,1099.348755 1859.086670,1099.347778 
	C1961.387207,805.580750 2063.687744,511.813690 2165.999023,218.015564 
	C2293.435547,218.015564 2420.048828,218.015564 2548.142822,218.015564 
	C2548.194824,227.304214 2548.265625,236.481506 2548.291748,245.658936 
	C2548.317383,254.643265 2548.297607,263.627716 2548.297607,273.856445 
	C2544.418457,274.017395 2540.917480,274.277649 2537.415283,274.289825 
	C2508.416748,274.390747 2479.403564,273.927643 2450.425781,274.739532 
	C2436.541260,275.128571 2422.543457,277.022400 2408.917969,279.806549 
	C2388.246094,284.030548 2377.059326,298.014221 2373.899658,318.510376 
	C2372.838623,325.393768 2372.084229,332.405823 2372.082275,339.359314 
	C2371.992920,634.024109 2372.083252,928.689026 2371.880859,1223.353638 
	C2371.860840,1252.541504 2387.790527,1272.174927 2420.829590,1277.648193 
	C2437.175049,1280.355835 2453.938965,1281.066284 2470.545898,1281.536133 
	C2492.861328,1282.167236 2515.208008,1281.675171 2537.541260,1281.711426 
	C2540.786377,1281.716675 2544.031250,1281.979126 2547.765137,1282.144165 
	C2547.765137,1300.907104 2547.765137,1319.043579 2547.765137,1337.744385 
	C2377.406250,1337.744385 2207.531982,1337.744385 2036.201416,1337.744385 
	C2036.134399,1328.702148 2036.040405,1319.523926 2036.005737,1310.345337 
	C2035.971802,1301.370850 2035.998413,1292.396118 2035.998413,1282.210815 
	C2039.924927,1282.024780 2043.421753,1281.721069 2046.918945,1281.715576 
	C2073.252197,1281.673706 2099.585693,1281.775024 2125.918213,1281.657227 
	C2141.603027,1281.587158 2157.293701,1280.877075 2172.340576,1275.927124 
	C2192.333252,1269.350220 2206.607422,1256.986450 2211.000732,1235.450073 
	C2211.725098,1231.899414 2211.815674,1228.172974 2211.815918,1224.527710 
	C2211.850342,912.196289 2211.846680,599.864929 2211.845459,287.533539 
	C2211.845459,285.229553 2211.845215,282.925598 2211.845215,280.621613 
	C2211.284424,280.460052 2210.723389,280.298492 2210.162598,280.136932 
	C2087.382812,632.684204 1964.603271,985.231506 1841.776733,1337.913330 
	C1824.170654,1337.913330 1807.258789,1337.913330 1789.467896,1337.913330 
	C1657.519897,987.138916 1525.581421,636.389954 1393.643066,285.640961 
	C1392.997559,285.723938 1392.352051,285.806885 1391.706543,285.889862 
	C1391.706543,289.011963 1391.706543,292.134094 1391.706421,295.256226 
	C1391.705811,563.921204 1391.708984,832.586243 1391.697876,1101.251221 
	C1391.696899,1126.319092 1393.371094,1151.261108 1400.012817,1175.504639 
	C1413.421265,1224.449219 1444.192017,1256.601929 1493.605225,1269.995239 
	C1514.885742,1275.763062 1536.646118,1278.721313 1558.618530,1280.258179 
	C1563.217651,1280.579834 1567.793335,1281.239258 1572.894775,1281.799561 
	C1572.894775,1300.583496 1572.894775,1318.739136 1572.894775,1338.307983 
	C1476.732056,1338.307983 1380.865967,1338.307983 1284.000000,1338.308105 
z"/>
<path fill="#7E4D9E" opacity="1.000000" stroke="none" 
	d="
M3627.725342,1037.629395 
	C3623.090576,1138.027710 3618.475342,1237.470093 3613.828613,1337.593994 
	C3305.854492,1337.593994 2998.469482,1337.593994 2690.542969,1337.593994 
	C2690.542969,1319.067017 2690.542969,1300.935547 2690.542969,1282.175415 
	C2694.284424,1281.999390 2697.525879,1281.721802 2700.767822,1281.715088 
	C2720.432617,1281.673950 2740.112061,1282.157959 2759.757324,1281.539673 
	C2774.023438,1281.090454 2788.476074,1280.409912 2802.437500,1277.717896 
	C2831.417969,1272.130005 2846.405029,1253.469727 2847.660889,1223.807617 
	C2847.787598,1220.812866 2847.702881,1217.808838 2847.702881,1214.809204 
	C2847.704834,922.170532 2847.711670,629.531799 2847.655029,336.893127 
	C2847.654053,331.257965 2847.293457,325.561768 2846.429443,319.998291 
	C2842.344727,293.693512 2827.598145,279.404602 2800.882812,276.106476 
	C2791.979980,275.007416 2782.961670,274.469818 2773.989258,274.385071 
	C2749.660400,274.155243 2725.328125,274.305695 2700.997070,274.305420 
	C2697.740479,274.305359 2694.483643,274.305420 2690.618164,274.305420 
	C2690.618164,255.239807 2690.618164,237.107956 2690.618164,218.332794 
	C2986.354492,218.332794 3281.778809,218.332794 3578.324463,218.332794 
	C3585.391602,343.867493 3592.441895,469.098358 3599.531738,595.033142 
	C3582.471191,595.033142 3565.986328,595.033142 3548.810059,595.033142 
	C3545.891113,580.397461 3543.098877,565.768372 3540.043213,551.194458 
	C3530.663086,506.457031 3518.490723,462.557343 3499.814941,420.695618 
	C3485.727539,389.118469 3468.089355,359.889130 3442.851562,335.728241 
	C3409.278076,303.587036 3369.480957,284.125031 3323.508789,277.963318 
	C3306.399414,275.670166 3289.015381,274.565308 3271.747803,274.464691 
	C3204.756592,274.074341 3137.761719,274.265533 3070.768066,274.366547 
	C3063.798828,274.377075 3056.772949,274.809204 3049.872559,275.763733 
	C3028.352539,278.740631 3014.721436,291.384308 3010.479736,312.501495 
	C3009.111084,319.315918 3008.393066,326.380402 3008.386475,333.331421 
	C3008.264648,462.652252 3008.295410,591.973267 3008.293945,721.294250 
	C3008.293945,724.249939 3008.293945,727.205566 3008.293945,730.688354 
	C3011.109131,731.079895 3013.310547,731.651917 3015.511719,731.652039 
	C3045.841064,731.654175 3076.178955,732.016357 3106.498047,731.433594 
	C3180.481445,730.011841 3235.898193,690.390991 3261.884277,620.771729 
	C3272.323486,592.803833 3277.548340,563.701599 3280.068115,534.053589 
	C3280.824219,525.156677 3281.533691,516.255798 3282.305176,506.859131 
	C3299.372559,506.859131 3315.906006,506.859131 3332.435547,506.859131 
	C3334.605225,513.952393 3335.637207,1002.826111 3333.462158,1024.942505 
	C3316.758301,1024.942505 3299.979736,1024.942505 3282.312012,1024.942505 
	C3281.554443,1014.732056 3280.826416,1004.545044 3280.038574,994.362671 
	C3277.538330,962.052490 3272.356934,930.257446 3261.717285,899.518799 
	C3247.657471,858.900452 3223.284424,826.728516 3184.979736,806.027222 
	C3162.929932,794.110779 3139.157227,787.309265 3114.313721,786.451904 
	C3080.355713,785.280151 3046.335693,785.908691 3012.342285,785.804993 
	C3011.402100,785.802124 3010.460449,786.249756 3008.293945,786.796814 
	C3008.293945,790.150696 3008.293945,793.704651 3008.293945,797.258545 
	C3008.293945,940.578186 3008.287598,1083.897827 3008.300049,1227.217407 
	C3008.302734,1258.926025 3023.314697,1275.934204 3055.098145,1279.768311 
	C3064.669189,1280.922974 3074.359375,1281.593872 3083.996826,1281.610107 
	C3142.989258,1281.709473 3201.990479,1282.135620 3260.972900,1281.310181 
	C3310.489502,1280.617310 3358.251709,1271.057129 3402.544678,1247.706543 
	C3448.951416,1223.241699 3484.038086,1187.092896 3510.751709,1142.392578 
	C3536.655518,1099.047241 3553.096191,1051.998169 3563.806152,1002.944397 
	C3569.337158,977.611206 3572.962891,951.862061 3577.457764,926.302307 
	C3577.743652,924.676758 3578.103516,923.064209 3578.539795,920.893555 
	C3596.135498,920.893555 3613.628906,920.893555 3632.397217,920.893555 
	C3631.954590,959.774353 3628.677734,998.189636 3627.725342,1037.629395 
z"/>
<path fill="#7F4E9F" opacity="1.000000" stroke="none" 
	d="
M322.692627,302.665802 
	C367.750641,264.599518 417.420441,235.974686 472.584351,217.116730 
	C506.759308,205.433899 541.920471,198.576035 577.976562,195.680908 
	C674.640137,187.919266 762.693298,212.902008 843.723328,264.805023 
	C860.826477,275.760315 877.326172,287.657715 894.102600,299.123077 
	C896.283936,300.613861 898.457092,302.116699 901.170593,303.983063 
	C902.776672,301.111542 904.329346,298.641968 905.591431,296.031921 
	C920.379944,265.448975 935.300659,234.927444 949.730957,204.175949 
	C952.571289,198.123062 955.853699,195.805298 962.590515,196.121811 
	C975.172791,196.712982 987.802673,196.291702 1001.277893,196.291702 
	C1002.016174,208.184479 1002.894836,219.358719 1003.371277,230.550110 
	C1005.057312,270.157104 1006.541321,309.772736 1008.221252,349.380005 
	C1010.931580,413.282104 1013.685364,477.182434 1016.522278,541.079041 
	C1018.014404,574.686401 1019.730713,608.283813 1021.303833,641.887695 
	C1021.377625,643.463501 1021.041565,645.058533 1020.849915,647.152344 
	C1003.875244,647.152344 987.361023,647.152344 970.446106,647.152344 
	C966.265442,632.588257 962.267334,618.169556 957.986755,603.835266 
	C941.760254,549.497070 922.402832,496.384186 896.092834,445.990173 
	C873.386841,402.499329 845.169678,363.161591 808.855835,329.924072 
	C769.415344,293.824768 724.294800,268.346222 671.141846,259.425323 
	C572.807129,242.921356 488.756653,269.969543 420.378296,343.488739 
	C376.581085,390.578705 350.808380,447.031799 334.255890,508.300201 
	C321.896271,554.049011 314.426208,600.661316 309.664124,647.776306 
	C303.491333,708.848389 301.029449,770.081055 302.435272,831.403625 
	C304.188995,907.901611 312.597229,983.538696 336.058960,1056.846558 
	C350.778107,1102.837646 371.044769,1146.104736 399.879822,1185.084229 
	C442.687561,1242.952271 498.928314,1280.151245 569.667236,1294.551025 
	C633.215454,1307.487061 696.340454,1305.574585 758.065063,1285.070068 
	C835.123352,1259.471802 892.707153,1209.615601 933.246460,1139.733154 
	C960.431152,1092.871704 976.977966,1042.041138 988.077698,989.280457 
	C990.737427,976.637878 993.083923,963.929382 995.656982,950.831543 
	C1013.623596,950.831543 1031.108032,950.831543 1049.092651,950.831543 
	C1047.010498,974.604431 1042.859985,997.469910 1037.943604,1020.196228 
	C1026.754395,1071.919556 1010.000000,1121.690430 983.257385,1167.562134 
	C922.964172,1270.983276 834.372070,1335.193604 716.547546,1358.320801 
	C670.433350,1367.372437 623.929382,1368.480591 577.265564,1364.268677 
	C468.044952,1354.410645 372.654205,1312.496460 291.678955,1238.738892 
	C225.301056,1178.277588 179.524597,1103.854614 148.328583,1020.174988 
	C129.381577,969.351990 117.943367,916.777771 113.669907,862.680725 
	C100.266335,693.006653 141.014786,537.687073 237.518707,397.312134 
	C261.594727,362.291016 289.861145,330.856110 322.692627,302.665802 
z"/>
<path fill="#FCFCFC" opacity="1.000000" stroke="none" 
	d="
M489.331726,1754.830322 
	C486.222900,1747.018311 483.411957,1739.919922 480.414886,1732.351562 
	C430.061188,1732.351562 379.910278,1732.351562 328.999664,1732.351562 
	C321.285370,1754.940063 310.582367,1776.401855 305.311218,1799.941772 
	C301.896851,1815.189453 310.268188,1827.737061 322.933075,1833.051514 
	C329.544769,1835.825928 336.986176,1836.967529 344.175629,1837.912842 
	C350.044769,1838.684570 356.096252,1838.069702 362.976410,1838.069702 
	C363.261292,1841.614502 363.582550,1844.456787 363.693146,1847.307251 
	C363.807922,1850.265991 363.718719,1853.232666 363.718719,1856.019653 
	C356.103973,1858.063843 240.029007,1858.692017 224.910126,1856.837402 
	C224.708832,1854.134888 224.409729,1851.267700 224.304977,1848.393555 
	C224.197845,1845.453613 224.281281,1842.506714 224.281281,1839.225464 
	C230.785095,1838.168701 236.634735,1837.401855 242.405365,1836.241943 
	C254.076019,1833.896362 263.608978,1827.835693 269.726868,1817.684082 
	C275.198975,1808.604004 280.303772,1799.146729 284.246277,1789.324341 
	C325.670929,1686.117188 366.827240,1582.802246 408.068939,1479.521606 
	C409.778625,1475.240234 411.599335,1471.003174 413.407593,1466.650879 
	C419.257660,1466.650879 424.520752,1466.650879 430.780334,1466.650879 
	C432.035034,1469.628906 433.490814,1472.883667 434.791077,1476.199463 
	C478.549683,1587.791016 522.293579,1699.388184 566.037781,1810.985474 
	C566.888489,1813.155762 567.681885,1815.349121 568.561157,1817.507690 
	C573.913574,1830.646606 584.028381,1837.107300 597.867859,1838.030273 
	C602.798767,1838.359131 607.770142,1838.083008 613.438110,1838.083008 
	C613.438110,1844.783936 613.438110,1850.578003 613.438110,1857.051270 
	C563.233704,1857.051270 513.050110,1857.051270 461.999329,1857.051270 
	C461.999329,1851.157959 461.999329,1845.103149 461.999329,1838.111328 
	C468.759613,1838.111328 475.073059,1838.494995 481.318756,1838.008667 
	C488.254425,1837.468506 495.315796,1836.818848 501.986237,1834.990356 
	C512.713318,1832.049805 516.070862,1825.792725 512.394836,1815.267822 
	C507.018433,1799.874268 500.847748,1784.758057 495.011230,1769.525269 
	C493.224609,1764.862061 491.423859,1760.204102 489.331726,1754.830322 
M408.254974,1547.023804 
	C407.703674,1546.006958 407.152344,1544.990234 405.578735,1542.087891 
	C382.467865,1599.675415 360.121277,1655.358398 337.464722,1711.813721 
	C382.938751,1711.813721 427.089325,1711.813721 472.562042,1711.813721 
	C451.089111,1656.777588 429.950073,1602.597046 408.254974,1547.023804 
z"/>
<path fill="#FCFCFC" opacity="1.000000" stroke="none" 
	d="
M2103.946533,1613.908691 
	C2127.758301,1612.666016 2150.647217,1611.473022 2174.837158,1610.212280 
	C2177.310059,1626.862915 2179.689941,1642.889648 2182.319336,1660.595215 
	C2185.415039,1656.486816 2187.680664,1653.365234 2190.063232,1650.335693 
	C2215.443359,1618.065308 2248.492188,1605.370361 2288.892090,1612.055664 
	C2306.892578,1615.034424 2321.104492,1624.282959 2331.025146,1639.708618 
	C2341.386230,1655.819092 2346.348145,1673.535034 2346.334473,1692.685669 
	C2346.306885,1730.998291 2346.322998,1769.311035 2346.343994,1807.623657 
	C2346.345947,1810.951294 2346.262451,1814.309204 2346.654297,1817.601318 
	C2348.356689,1831.909058 2354.308350,1837.400757 2368.763672,1838.096191 
	C2375.074951,1838.399902 2381.396484,1838.491577 2387.712158,1838.713501 
	C2387.979492,1838.722900 2388.234863,1839.075439 2389.106445,1839.718994 
	C2389.106445,1845.040283 2389.106445,1850.817505 2389.106445,1857.158936 
	C2346.814941,1857.158936 2304.995361,1857.158936 2262.421143,1857.158936 
	C2262.421143,1851.212646 2262.421143,1845.419434 2262.421143,1838.729492 
	C2266.250977,1838.557129 2270.147705,1838.468750 2274.030273,1838.184448 
	C2278.663818,1837.845459 2283.393311,1837.820312 2287.889893,1836.808838 
	C2298.856201,1834.342163 2303.876221,1828.291870 2303.907471,1817.119995 
	C2304.015381,1778.475220 2304.244385,1739.823608 2303.594238,1701.188721 
	C2303.429199,1691.381104 2301.307373,1681.237549 2298.109375,1671.926758 
	C2291.477539,1652.619385 2277.561279,1641.391724 2256.854004,1639.198242 
	C2228.533936,1636.198242 2203.349854,1651.294556 2190.606445,1679.158081 
	C2184.850098,1691.743896 2181.974121,1705.052612 2181.919189,1718.864746 
	C2181.792236,1750.847046 2181.771729,1782.830566 2181.914062,1814.812622 
	C2181.984619,1830.667114 2188.523438,1837.381348 2204.180664,1838.076050 
	C2210.478760,1838.355591 2216.799316,1838.122070 2223.983887,1838.122070 
	C2223.983887,1844.835938 2223.983887,1850.879517 2223.983887,1857.164551 
	C2181.373779,1857.164551 2139.220947,1857.164551 2096.520996,1857.164551 
	C2096.520996,1851.084839 2096.520996,1845.541626 2096.520996,1839.113159 
	C2098.906006,1838.845581 2101.405029,1838.417480 2103.917480,1838.314453 
	C2108.908447,1838.109863 2113.936035,1838.394897 2118.895996,1837.924683 
	C2132.242188,1836.659424 2138.438232,1829.811768 2138.471191,1816.398926 
	C2138.538818,1788.747314 2138.492432,1761.095459 2138.493164,1733.443726 
	C2138.493652,1711.788696 2138.499023,1690.133789 2138.488037,1668.478760 
	C2138.486572,1665.481445 2138.524170,1662.476685 2138.338135,1659.488159 
	C2137.311035,1642.973877 2127.702637,1633.170898 2111.116211,1631.993164 
	C2105.862061,1631.619873 2100.559082,1631.934814 2094.678223,1631.934814 
	C2094.332031,1628.522583 2093.972168,1625.999023 2093.847656,1623.463745 
	C2093.718994,1620.841919 2093.818848,1618.208862 2093.818848,1614.784668 
	C2097.273682,1614.474487 2100.148682,1614.216431 2103.946533,1613.908691 
z"/>
<path fill="#FCFCFC" opacity="1.000000" stroke="none" 
	d="
M2749.467773,1613.718384 
	C2772.918457,1612.543091 2795.447510,1611.402344 2819.217041,1610.198730 
	C2819.217041,1614.796997 2819.217041,1618.368896 2819.217041,1621.940796 
	C2819.217041,1670.587891 2819.167969,1719.234985 2819.272217,1767.881836 
	C2819.287109,1774.859497 2819.322510,1781.968262 2820.576904,1788.790405 
	C2827.757568,1827.839966 2867.127930,1845.684448 2902.141846,1825.598877 
	C2923.729492,1813.215088 2935.734863,1793.767822 2939.934082,1769.544922 
	C2941.290771,1761.719360 2941.675537,1753.651489 2941.737061,1745.688599 
	C2941.947754,1718.367920 2941.859375,1691.044434 2941.802979,1663.722290 
	C2941.766357,1645.967896 2935.463867,1638.141113 2918.087158,1634.680664 
	C2911.933105,1633.455078 2905.612305,1633.066162 2898.857910,1632.232178 
	C2898.857910,1626.347412 2898.857910,1620.878540 2898.857910,1614.412476 
	C2926.919922,1613.032227 2954.698730,1611.665894 2983.567139,1610.245972 
	C2983.741455,1614.474365 2984.011963,1617.996216 2984.013428,1621.518066 
	C2984.039062,1682.493530 2984.031494,1743.468872 2984.031250,1804.444336 
	C2984.031250,1806.776733 2983.963867,1809.111328 2984.041992,1811.441162 
	C2984.585938,1827.651611 2993.988525,1837.257812 3010.361328,1838.081665 
	C3015.990479,1838.364990 3021.645752,1838.126709 3028.072266,1838.126709 
	C3028.072266,1844.254150 3028.072266,1849.678467 3028.072266,1855.549683 
	C3000.991455,1856.307617 2974.462158,1857.050049 2947.067871,1857.816650 
	C2945.241699,1842.446777 2943.502930,1827.811890 2941.531738,1811.222168 
	C2937.186523,1815.788452 2934.118896,1819.118530 2930.938232,1822.337158 
	C2914.835205,1838.630493 2897.293701,1852.881836 2874.554443,1858.707520 
	C2845.205566,1866.226685 2819.158936,1860.179810 2797.356201,1838.470215 
	C2788.328857,1829.481323 2783.468506,1818.226318 2780.276367,1806.180664 
	C2776.668213,1792.565552 2775.764404,1778.630859 2775.795410,1764.587769 
	C2775.869629,1730.934814 2775.841797,1697.281616 2775.808350,1663.628540 
	C2775.789062,1644.377930 2767.900635,1635.793091 2748.534424,1633.822632 
	C2743.621094,1633.322632 2738.699951,1632.902344 2733.336426,1632.403931 
	C2733.336426,1626.188110 2733.336426,1620.709351 2733.336426,1613.752930 
	C2738.744873,1613.752930 2743.645508,1613.752930 2749.467773,1613.718384 
z"/>
<path fill="#FCFCFC" opacity="1.000000" stroke="none" 
	d="
M1517.122559,1760.665039 
	C1514.001831,1729.437012 1516.229004,1699.740601 1530.107422,1672.043091 
	C1544.956543,1642.407837 1567.451172,1620.758301 1600.084473,1612.226929 
	C1655.745850,1597.675293 1715.952881,1621.333252 1733.716553,1694.548706 
	C1737.085571,1708.434570 1738.865723,1722.617432 1737.832886,1738.230835 
	C1680.430664,1738.230835 1623.315063,1738.230835 1565.341675,1738.230835 
	C1565.671387,1764.653320 1567.418335,1789.653320 1582.168091,1811.090088 
	C1597.862427,1833.899414 1620.879639,1842.651978 1648.131226,1840.962646 
	C1669.176392,1839.658203 1686.556519,1830.464722 1700.679077,1815.277832 
	C1706.990967,1808.490356 1712.167969,1800.633789 1717.711182,1793.152100 
	C1719.846924,1790.269653 1721.568848,1787.080688 1723.858521,1783.426147 
	C1729.383179,1785.858154 1734.464111,1788.094727 1740.677124,1790.829590 
	C1736.861450,1797.350952 1733.678833,1803.467896 1729.877075,1809.171997 
	C1711.834839,1836.241943 1688.427979,1856.042969 1655.543945,1862.243774 
	C1579.513550,1876.580322 1531.841919,1825.630371 1520.067505,1776.259155 
	C1518.911133,1771.410400 1518.218018,1766.451050 1517.122559,1760.665039 
M1577.009399,1660.264648 
	C1568.143188,1678.917236 1564.950928,1698.627441 1565.445190,1719.110474 
	C1566.911133,1719.579224 1567.832886,1720.130737 1568.755371,1720.131958 
	C1602.679443,1720.176758 1636.605103,1720.343872 1670.526855,1720.067139 
	C1680.884521,1719.982544 1686.567383,1714.275269 1688.176270,1703.313110 
	C1691.860107,1678.213989 1684.854736,1656.588013 1666.179810,1639.162354 
	C1645.445801,1619.815308 1614.620483,1619.461914 1593.833008,1638.829468 
	C1587.614502,1644.623169 1583.055664,1652.198242 1577.009399,1660.264648 
z"/>
<path fill="#FCFCFC" opacity="1.000000" stroke="none" 
	d="
M3486.805664,1837.972412 
	C3518.629639,1845.955688 3545.741211,1838.997192 3568.043457,1815.906250 
	C3574.695801,1809.018555 3579.990723,1800.803711 3585.756348,1793.083862 
	C3587.899414,1790.214111 3589.609131,1787.020874 3591.862061,1783.422729 
	C3597.438477,1785.885376 3602.514648,1788.126953 3608.559082,1790.796387 
	C3590.073975,1826.111084 3565.583740,1853.500244 3525.505859,1861.789307 
	C3445.472412,1878.341919 3394.078613,1821.565918 3385.930176,1765.650269 
	C3381.220947,1733.337036 3383.422363,1701.723267 3398.120850,1672.076416 
	C3412.833008,1642.401123 3435.391602,1620.775635 3467.993164,1612.254761 
	C3524.508789,1597.483521 3584.015137,1622.094482 3601.669434,1694.333008 
	C3605.062988,1708.219360 3606.827148,1722.426147 3605.878662,1738.038574 
	C3548.657959,1738.038574 3491.590332,1738.038574 3433.749756,1738.038574 
	C3432.697754,1755.922852 3435.210205,1772.139404 3439.574951,1788.172974 
	C3444.112305,1804.841064 3452.839111,1818.719727 3467.404297,1828.276245 
	C3473.191650,1832.073486 3479.780029,1834.649780 3486.805664,1837.972412 
M3556.094238,1679.367676 
	C3553.566162,1663.705688 3546.329102,1650.591553 3534.818604,1639.731323 
	C3513.810059,1619.909668 3483.049072,1619.463257 3461.625244,1638.753052 
	C3452.832520,1646.670044 3446.135742,1656.071289 3441.945068,1667.169434 
	C3435.576660,1684.035034 3432.648438,1701.406494 3433.604248,1718.893066 
	C3434.765625,1719.625854 3435.043457,1719.954956 3435.322021,1719.955566 
	C3469.889404,1720.035767 3504.457520,1720.254028 3539.023193,1720.039429 
	C3548.145508,1719.982788 3554.275635,1714.857422 3555.607422,1705.764526 
	C3556.793213,1697.670288 3556.122314,1689.304321 3556.094238,1679.367676 
z"/>
<path fill="#FCFCFC" opacity="1.000000" stroke="none" 
	d="
M991.060791,1678.863770 
	C1009.343811,1719.538330 1027.274414,1759.540527 1046.016602,1801.353394 
	C1047.955322,1797.355835 1049.128296,1795.187256 1050.084961,1792.927124 
	C1067.471436,1751.854614 1084.834351,1710.772095 1102.196777,1669.689453 
	C1109.700684,1651.933716 1105.724609,1643.334839 1087.005127,1637.463989 
	C1081.339966,1635.687378 1075.470093,1634.563965 1069.271240,1633.037109 
	C1069.271240,1627.698486 1069.271240,1622.476440 1069.271240,1617.321167 
	C1076.666626,1615.282227 1157.788208,1614.873901 1169.168823,1616.844238 
	C1169.168823,1621.925659 1169.168823,1627.117676 1169.168823,1632.965088 
	C1166.770630,1633.573120 1164.310425,1634.300903 1161.806396,1634.814697 
	C1146.484497,1637.958008 1136.487549,1647.297119 1130.424927,1661.405884 
	C1117.678467,1691.070068 1104.858643,1720.702515 1092.056885,1750.342773 
	C1075.824463,1787.926392 1059.579834,1825.505005 1043.089844,1863.665771 
	C1038.298950,1863.665771 1033.423706,1863.665771 1027.914795,1863.665771 
	C1027.028076,1862.106567 1025.735596,1860.205688 1024.804321,1858.141724 
	C994.822510,1791.690308 964.628174,1725.332764 935.106567,1658.677246 
	C928.160583,1642.994263 918.339844,1633.424683 900.555786,1633.775269 
	C899.643616,1633.793335 898.720459,1633.251587 897.320679,1632.823120 
	C897.320679,1627.618530 897.320679,1622.417480 897.320679,1617.273682 
	C904.607666,1615.346313 1003.439026,1614.793823 1016.227051,1616.614136 
	C1016.227051,1622.055786 1016.227051,1627.559692 1016.227051,1633.052979 
	C1008.378113,1633.957642 1001.076172,1634.421143 993.921692,1635.705933 
	C980.631531,1638.092529 976.774719,1645.359131 981.851746,1658.086426 
	C984.563354,1664.884033 987.741150,1671.495728 991.060791,1678.863770 
z"/>
<path fill="#6C6C6C" opacity="1.000000" stroke="none" 
	d="
M408.533020,1547.720215 
	C429.950073,1602.597046 451.089111,1656.777588 472.562042,1711.813721 
	C427.089325,1711.813721 382.938751,1711.813721 337.464722,1711.813721 
	C360.121277,1655.358398 382.467865,1599.675415 405.578735,1542.087891 
	C407.152344,1544.990234 407.703674,1546.006958 408.533020,1547.720215 
z"/>
<path fill="#6C6C6C" opacity="1.000000" stroke="none" 
	d="
M1577.372925,1659.610962 
	C1583.055664,1652.198242 1587.614502,1644.623169 1593.833008,1638.829468 
	C1614.620483,1619.461914 1645.445801,1619.815308 1666.179810,1639.162354 
	C1684.854736,1656.588013 1691.860107,1678.213989 1688.176270,1703.313110 
	C1686.567383,1714.275269 1680.884521,1719.982544 1670.526855,1720.067139 
	C1636.605103,1720.343872 1602.679443,1720.176758 1568.755371,1720.131958 
	C1567.832886,1720.130737 1566.911133,1719.579224 1565.445190,1719.110474 
	C1564.950928,1698.627441 1568.143188,1678.917236 1577.372925,1659.610962 
z"/>
<path fill="#6C6C6C" opacity="1.000000" stroke="none" 
	d="
M3556.182617,1680.212891 
	C3556.122314,1689.304321 3556.793213,1697.670288 3555.607422,1705.764526 
	C3554.275635,1714.857422 3548.145508,1719.982788 3539.023193,1720.039429 
	C3504.457520,1720.254028 3469.889404,1720.035767 3435.322021,1719.955566 
	C3435.043457,1719.954956 3434.765625,1719.625854 3433.604248,1718.893066 
	C3432.648438,1701.406494 3435.576660,1684.035034 3441.945068,1667.169434 
	C3446.135742,1656.071289 3452.832520,1646.670044 3461.625244,1638.753052 
	C3483.049072,1619.463257 3513.810059,1619.909668 3534.818604,1639.731323 
	C3546.329102,1650.591553 3553.566162,1663.705688 3556.182617,1680.212891 
z"/>
</svg>