<?xml version="1.0" encoding="utf-8"?>
<!-- Generator: Adobe Illustrator 25.2.0, SVG Export Plug-In . SVG Version: 6.00 Build 0)  -->
<svg version="1.1" id="Layer_1" xmlns="http://www.w3.org/2000/svg" xmlns:xlink="http://www.w3.org/1999/xlink" x="0px" y="0px"
	 viewBox="0 0 179 179" style="enable-background:new 0 0 179 179;" xml:space="preserve">
<style type="text/css">
	.st0{fill:none;stroke:#FFFFFF;}
	.st1{display:none;fill:#FFFFFF;}
</style>
<circle class="st0" cx="89.5" cy="89.5" r="89"/>
<path class="st1" d="M65.6,84.5h2.4c0.9,0,1.5,0.2,1.9,0.6c0.4,0.4,0.6,1,0.6,1.8v0.6c0,1.1-0.4,1.8-1.1,2.1v0
	c0.4,0.1,0.7,0.4,0.8,0.7c0.2,0.4,0.3,0.9,0.3,1.5v1.8c0,0.3,0,0.5,0,0.7c0,0.2,0.1,0.4,0.1,0.5H69c-0.1-0.2-0.1-0.3-0.1-0.5
	c0-0.1,0-0.4,0-0.8v-1.9c0-0.5-0.1-0.8-0.2-1c-0.1-0.2-0.4-0.3-0.8-0.3h-0.6V95h-1.7V84.5z M67.9,89c0.3,0,0.6-0.1,0.7-0.3
	c0.2-0.2,0.3-0.5,0.3-0.9v-0.8c0-0.4-0.1-0.7-0.2-0.8C68.5,86.1,68.3,86,68,86h-0.8v3H67.9z M73.2,84.5h4.5V86h-2.9v2.8h2.3v1.5
	h-2.3v3.2h2.9V95h-4.5V84.5z M79.7,84.5h1.7l1.1,8.1h0l1.1-8.1H85L83.5,95h-2.2L79.7,84.5z M87.3,84.5H89V95h-1.7V84.5z M91.7,84.5
	h4.5V86h-2.9v2.8h2.3v1.5h-2.3v3.2h2.9V95h-4.5V84.5z M98.3,84.5h1.6l0.7,8.1h0l0.8-8.1h1.8l0.8,8.1h0l0.7-8.1h1.4L105.1,95h-2.1
	l-0.8-7.1h0l-0.8,7.1h-2.2L98.3,84.5z M110.7,95.2c-0.8,0-1.4-0.2-1.8-0.7c-0.4-0.5-0.6-1.1-0.6-2v-0.6h1.6v0.7c0,0.7,0.3,1,0.9,1
	c0.3,0,0.5-0.1,0.6-0.2c0.1-0.2,0.2-0.4,0.2-0.8c0-0.4-0.1-0.8-0.3-1.2c-0.2-0.3-0.6-0.7-1.1-1.2c-0.7-0.6-1.2-1.1-1.4-1.6
	c-0.3-0.5-0.4-1-0.4-1.7c0-0.8,0.2-1.5,0.6-1.9c0.4-0.5,1-0.7,1.8-0.7c0.8,0,1.4,0.2,1.8,0.7c0.4,0.4,0.6,1.1,0.6,1.9v0.4h-1.6v-0.5
	c0-0.4-0.1-0.6-0.2-0.8c-0.1-0.2-0.3-0.3-0.6-0.3c-0.6,0-0.8,0.3-0.8,1c0,0.4,0.1,0.7,0.3,1.1c0.2,0.3,0.6,0.7,1.1,1.2
	c0.7,0.6,1.2,1.1,1.4,1.6c0.3,0.5,0.4,1.1,0.4,1.7c0,0.9-0.2,1.5-0.6,2C112.1,94.9,111.5,95.2,110.7,95.2z"/>
</svg>
