<svg width="12" height="20" viewBox="0 0 12 20" fill="none" xmlns="http://www.w3.org/2000/svg">
<path d="M11.5411 0.440231C11.8349 0.722196 12 1.10457 12 1.50327C12 1.90197 11.8349 2.28434 11.5411 2.56631L3.78308 10.0091L11.5411 17.4518C11.8266 17.7354 11.9846 18.1152 11.981 18.5095C11.9774 18.9037 11.8126 19.2808 11.522 19.5596C11.2314 19.8384 10.8383 19.9965 10.4274 19.9999C10.0165 20.0034 9.62058 19.8518 9.32499 19.5779L0.458879 11.0721C0.16506 10.7902 4.98736e-07 10.4078 5.16164e-07 10.0091C5.33591e-07 9.61038 0.16506 9.228 0.458879 8.94604L9.32499 0.440231C9.6189 0.158351 10.0175 -8.66592e-08 10.4331 -6.84934e-08C10.8486 -5.03275e-08 11.2472 0.158351 11.5411 0.440231Z" fill="white"/>
</svg>
