<svg width="50" height="50" viewBox="0 0 50 50" fill="none" xmlns="http://www.w3.org/2000/svg">
<path fill-rule="evenodd" clip-rule="evenodd" d="M11.6249 11.6249C12.0643 11.186 12.66 10.9394 13.2811 10.9394C13.9022 10.9394 14.4979 11.186 14.9374 11.6249L24.9999 21.6874L35.0624 11.6249C35.277 11.3946 35.5357 11.2099 35.8232 11.0818C36.1107 10.9537 36.4211 10.8848 36.7358 10.8793C37.0505 10.8737 37.363 10.9316 37.6549 11.0495C37.9467 11.1674 38.2118 11.3428 38.4344 11.5654C38.6569 11.7879 38.8324 12.053 38.9503 12.3449C39.0682 12.6367 39.126 12.9493 39.1205 13.264C39.1149 13.5787 39.0461 13.8891 38.918 14.1766C38.7899 14.464 38.6052 14.7228 38.3749 14.9374L28.3124 24.9999L38.3749 35.0624C38.6052 35.2769 38.7899 35.5357 38.918 35.8232C39.0461 36.1107 39.1149 36.421 39.1205 36.7357C39.126 37.0504 39.0682 37.363 38.9503 37.6549C38.8324 37.9467 38.6569 38.2118 38.4344 38.4344C38.2118 38.6569 37.9467 38.8324 37.6549 38.9503C37.363 39.0681 37.0505 39.126 36.7358 39.1205C36.4211 39.1149 36.1107 39.046 35.8232 38.9179C35.5357 38.7898 35.277 38.6051 35.0624 38.3749L24.9999 28.3124L14.9374 38.3749C14.4931 38.7889 13.9054 39.0143 13.2983 39.0035C12.6911 38.9928 12.1117 38.7469 11.6823 38.3174C11.2529 37.888 11.0069 37.3087 10.9962 36.7015C10.9855 36.0943 11.2109 35.5067 11.6249 35.0624L21.6874 24.9999L11.6249 14.9374C11.186 14.4979 10.9395 13.9022 10.9395 13.2811C10.9395 12.66 11.186 12.0643 11.6249 11.6249Z" fill="#0D0D0D"/>
</svg>
