<svg width="210" height="23" viewBox="0 0 210 23" fill="none" xmlns="http://www.w3.org/2000/svg">
<g clip-path="url(#clip0_4527_1430)">
<path fill-rule="evenodd" clip-rule="evenodd" d="M0.0264123 19.681L23.7887 0.673896L23.8019 0.669248L29.8283 0.171875L29.8503 0.236952L2.1482 22.7117L2.12179 22.7303L2.10418 22.7024L0.0176082 19.7275L0 19.7042L0.0264123 19.681Z" fill="white"/>
<path fill-rule="evenodd" clip-rule="evenodd" d="M33.3645 5.17822L19.2383 16.4086L21.2324 19.1651L31.3703 10.9282L33.3645 5.17822Z" fill="white"/>
<path fill-rule="evenodd" clip-rule="evenodd" d="M34.9492 0L31.5684 0.404406L10.3945 16.9897L12.9345 20.2389L33.7958 3.57458L34.9492 0Z" fill="white"/>
<path fill-rule="evenodd" clip-rule="evenodd" d="M53.5942 19.0397C53.7219 19.0397 53.8363 19.0954 53.942 19.2024L54.8532 20.2622C54.1488 21.1221 53.2993 21.8008 52.2956 22.2796C51.2919 22.763 50.0813 23.0001 48.6683 23.0001C47.4313 23.0001 46.3044 22.7723 45.3007 22.3214C44.2927 21.8705 43.4342 21.2383 42.7211 20.4202C42.008 19.6068 41.4577 18.626 41.0659 17.4871C40.6742 16.3483 40.4805 15.0932 40.4805 13.722C40.4805 12.3553 40.6918 11.1003 41.11 9.96145C41.5282 8.82261 42.118 7.84181 42.8752 7.01905C43.6367 6.20094 44.548 5.56877 45.6045 5.11323C46.6654 4.66234 47.8319 4.43457 49.1085 4.43457C50.3719 4.43457 51.4636 4.64375 52.3792 5.05745C53.2948 5.4758 54.1048 6.0429 54.818 6.75874L54.0608 7.8697C54.0036 7.95337 53.942 8.02309 53.8671 8.07422C53.7967 8.12536 53.691 8.15325 53.5546 8.15325C53.4489 8.15325 53.3433 8.11141 53.2288 8.03239C53.1144 7.95337 52.9735 7.85575 52.815 7.73489C52.6566 7.61869 52.4673 7.48853 52.2516 7.35373C52.0359 7.21893 51.7805 7.09342 51.4856 6.97257C51.1907 6.85636 50.8473 6.75409 50.4555 6.67507C50.0637 6.59605 49.6103 6.55886 49.0997 6.55886C48.1797 6.55886 47.3389 6.72156 46.5773 7.05624C45.8158 7.39092 45.1555 7.86505 44.6008 8.48328C44.0505 9.10151 43.6235 9.84989 43.3154 10.7377C43.0072 11.6256 42.8532 12.6157 42.8532 13.7127C42.8532 14.8422 43.0072 15.8509 43.3154 16.7387C43.6235 17.6266 44.0417 18.3703 44.5744 18.9839C45.107 19.5975 45.7321 20.0623 46.4629 20.383C47.1892 20.7038 47.9728 20.8665 48.8136 20.8665C49.3242 20.8665 49.7864 20.8339 50.1914 20.7688C50.6008 20.7038 50.9794 20.6108 51.3271 20.4714C51.6749 20.3366 52.0006 20.1646 52.3 19.9554C52.5993 19.7509 52.8987 19.5045 53.2024 19.2163C53.3345 19.1001 53.4665 19.0397 53.5942 19.0397Z" fill="white"/>
<path fill-rule="evenodd" clip-rule="evenodd" d="M60.4678 16.0134V22.8H58.1523V4.64355H63.2235C64.3108 4.64355 65.2573 4.77836 66.0628 5.04331C66.864 5.30827 67.5287 5.68478 68.057 6.17286C68.5852 6.66094 68.9814 7.25592 69.2411 7.94853C69.5008 8.64113 69.6285 9.41275 69.6285 10.2634C69.6285 11.114 69.4876 11.8857 69.2103 12.5829C68.9286 13.2848 68.5236 13.8891 67.9821 14.3958C67.4407 14.9024 66.7716 15.2929 65.9704 15.5765C65.1692 15.86 64.2536 16.0041 63.2235 16.0041H60.4678V16.0134ZM60.4678 14.0611H63.2279C63.8926 14.0611 64.4781 13.9681 64.9843 13.7822C65.4906 13.5963 65.9176 13.336 66.2609 13.0013C66.6043 12.6666 66.864 12.2715 67.0401 11.8067C67.2162 11.3418 67.3042 10.8305 67.3042 10.2727C67.3042 9.11526 66.9697 8.21348 66.2917 7.56271C65.6182 6.91195 64.5925 6.58656 63.2279 6.58656H60.4678V14.0611Z" fill="white"/>
<path fill-rule="evenodd" clip-rule="evenodd" d="M83.1494 4.64355V6.64234H74.9V12.6712H81.5823V14.5957H74.9V20.7965H83.1494V22.8H72.5625V4.64355H83.1494Z" fill="white"/>
<path fill-rule="evenodd" clip-rule="evenodd" d="M90.6484 4.58814H93.906C94.2405 4.58814 94.5267 4.66717 94.7512 4.82986C94.9757 4.9972 95.1209 5.21102 95.1914 5.48527L97.4848 14.8284C97.5597 15.1352 97.6389 15.4606 97.7137 15.7999C97.7886 16.1439 97.8458 16.5065 97.8854 16.883C97.9603 16.4972 98.0439 16.1346 98.1363 15.7953C98.2288 15.4513 98.3168 15.1306 98.4005 14.8284L101.108 5.48527C101.178 5.25286 101.328 5.04368 101.552 4.8624C101.777 4.68111 102.05 4.5835 102.371 4.5835H103.52C103.855 4.5835 104.136 4.66252 104.352 4.82521C104.568 4.98325 104.717 5.20173 104.801 5.48527L107.486 14.8331C107.57 15.1166 107.658 15.4234 107.75 15.7488C107.843 16.0742 107.922 16.4182 107.993 16.79C108.054 16.4275 108.12 16.0835 108.182 15.7581C108.248 15.4281 108.314 15.1213 108.38 14.8331L110.673 5.48527C110.735 5.24356 110.88 5.03903 111.109 4.85775C111.338 4.67646 111.615 4.5835 111.937 4.5835H114.987L109.833 22.382H106.324L103.181 11.5235C103.128 11.3515 103.075 11.1702 103.018 10.9703C102.961 10.7704 102.904 10.5566 102.851 10.3335C102.798 10.5566 102.745 10.7751 102.688 10.9703C102.631 11.1702 102.574 11.3515 102.521 11.5235L99.3337 22.382H95.8253L90.6484 4.58814Z" fill="white"/>
<path fill-rule="evenodd" clip-rule="evenodd" d="M123.434 22.3818C123.1 22.3818 122.845 22.3354 122.673 22.2377C122.501 22.1401 122.356 21.9356 122.241 21.6288L121.991 20.9316C121.691 21.2012 121.405 21.4382 121.132 21.6381C120.859 21.8426 120.573 22.0146 120.278 22.1541C119.983 22.2982 119.671 22.4004 119.336 22.4702C119.002 22.5399 118.632 22.5771 118.227 22.5771C117.685 22.5771 117.192 22.4981 116.748 22.3493C116.303 22.2006 115.929 21.9774 115.621 21.6799C115.313 21.3871 115.071 21.0199 114.903 20.5876C114.736 20.1506 114.652 19.6486 114.652 19.0722C114.652 18.626 114.758 18.1658 114.974 17.687C115.189 17.2129 115.559 16.7852 116.087 16.3994C116.616 16.009 117.324 15.6882 118.222 15.4233C119.116 15.163 120.247 15.0328 121.608 15.0328V14.4936C121.608 13.7452 121.467 13.206 121.181 12.876C120.894 12.5413 120.485 12.374 119.957 12.374C119.534 12.374 119.191 12.4204 118.922 12.5227C118.654 12.6203 118.416 12.7319 118.209 12.8527C117.998 12.9736 117.791 13.0852 117.593 13.1828C117.395 13.2804 117.157 13.3269 116.88 13.3269C116.633 13.3269 116.431 13.2618 116.255 13.1363C116.083 13.0108 115.947 12.8574 115.845 12.6668L115.203 11.4815C115.92 10.8028 116.721 10.2962 117.597 9.96612C118.473 9.63609 119.411 9.46875 120.41 9.46875C121.128 9.46875 121.779 9.59426 122.356 9.84527C122.933 10.0916 123.421 10.4403 123.826 10.8818C124.227 11.3234 124.535 11.8533 124.746 12.4623C124.962 13.0712 125.068 13.7406 125.068 14.4657V22.3818H123.434ZM119.349 20.0623C119.807 20.0623 120.208 19.9787 120.555 19.8113C120.899 19.644 121.247 19.3697 121.599 18.9932V17.2547C120.886 17.2547 120.305 17.3012 119.842 17.3988C119.385 17.4964 119.019 17.6173 118.751 17.7707C118.482 17.9148 118.297 18.0821 118.196 18.2727C118.095 18.4586 118.038 18.6678 118.038 18.8863C118.038 19.3186 118.148 19.6207 118.372 19.7974C118.597 19.974 118.922 20.0623 119.349 20.0623Z" fill="white"/>
<path fill-rule="evenodd" clip-rule="evenodd" d="M127.59 22.3816V9.71488H129.703C129.879 9.71488 130.029 9.72882 130.147 9.76136C130.266 9.7939 130.363 9.84503 130.447 9.91476C130.526 9.98448 130.588 10.0728 130.632 10.1937C130.676 10.3052 130.706 10.4447 130.737 10.6074L130.931 11.7973C131.367 11.0768 131.855 10.5097 132.401 10.0914C132.943 9.67304 133.537 9.46387 134.18 9.46387C134.721 9.46387 135.157 9.60797 135.487 9.88687L135.029 12.6712C134.998 12.8432 134.937 12.9594 134.844 13.0291C134.752 13.0989 134.629 13.1361 134.479 13.1361C134.347 13.1361 134.197 13.1175 134.021 13.0803C133.845 13.0431 133.625 13.0291 133.357 13.0291C132.423 13.0291 131.688 13.5962 131.156 14.7304V22.377H127.59V22.3816Z" fill="white"/>
<path fill-rule="evenodd" clip-rule="evenodd" d="M142.157 9.52002C142.945 9.52002 143.667 9.65017 144.323 9.91048C144.979 10.1708 145.538 10.5473 146.009 11.0447C146.48 11.542 146.845 12.1463 147.109 12.8668C147.373 13.5873 147.501 14.4054 147.501 15.3165C147.501 15.6001 147.488 15.8325 147.466 16.0138C147.444 16.1904 147.4 16.3345 147.338 16.4414C147.277 16.5483 147.197 16.6227 147.092 16.6599C146.99 16.7017 146.854 16.7203 146.696 16.7203H139.837C139.952 17.7801 140.255 18.5517 140.744 19.0305C141.233 19.5047 141.866 19.7464 142.637 19.7464C143.051 19.7464 143.407 19.6952 143.702 19.5883C144.001 19.4814 144.27 19.3652 144.503 19.2304C144.737 19.1003 144.952 18.984 145.146 18.8771C145.34 18.7702 145.542 18.7191 145.758 18.7191C146.04 18.7191 146.255 18.8353 146.401 19.0584L147.435 20.4436C147.07 20.8852 146.674 21.2431 146.251 21.5174C145.828 21.7963 145.393 22.0148 144.944 22.1682C144.494 22.3216 144.05 22.4331 143.601 22.4935C143.152 22.554 142.725 22.5819 142.32 22.5819C141.488 22.5819 140.704 22.4331 139.978 22.1449C139.247 21.8567 138.609 21.4291 138.063 20.8573C137.517 20.2856 137.086 19.5744 136.769 18.7284C136.452 17.8824 136.289 16.8969 136.289 15.772C136.289 14.926 136.426 14.1265 136.698 13.3688C136.971 12.6112 137.359 11.9511 137.869 11.3747C138.38 10.803 138.992 10.3521 139.718 10.022C140.431 9.68736 141.25 9.52002 142.157 9.52002ZM142.227 12.1324C141.545 12.1324 141.017 12.3369 140.634 12.746C140.251 13.155 140 13.75 139.877 14.5216H144.318C144.318 14.2195 144.283 13.9266 144.213 13.6431C144.142 13.3596 144.023 13.1039 143.856 12.8761C143.693 12.653 143.473 12.4717 143.205 12.3369C142.936 12.2021 142.61 12.1324 142.227 12.1324Z" fill="white"/>
<path fill-rule="evenodd" clip-rule="evenodd" d="M149.543 22.3815V4.09961H153.1V10.8351C153.527 10.4399 153.993 10.1239 154.495 9.8775C154.997 9.63579 155.591 9.51493 156.287 9.51493C156.938 9.51493 157.515 9.63579 158.017 9.8775C158.519 10.1192 158.937 10.4492 159.285 10.8769C159.628 11.3045 159.888 11.8112 160.064 12.4015C160.24 12.9919 160.328 13.6334 160.328 14.326V22.3769H156.771V14.3353C156.771 13.717 156.639 13.2336 156.371 12.885C156.102 12.541 155.71 12.369 155.191 12.369C154.799 12.369 154.434 12.4713 154.09 12.6758C153.747 12.8803 153.417 13.1499 153.104 13.4939V22.3769H149.543V22.3815Z" fill="white"/>
<path fill-rule="evenodd" clip-rule="evenodd" d="M168.149 9.52002C169.051 9.52002 169.874 9.66877 170.614 9.97091C171.353 10.2731 171.996 10.7053 172.524 11.2631C173.057 11.8256 173.471 12.5089 173.761 13.3084C174.056 14.1126 174.201 15.0144 174.201 16.0138C174.201 17.0271 174.056 17.9335 173.761 18.747C173.466 19.5558 173.053 20.2437 172.524 20.8108C171.992 21.3779 171.353 21.8102 170.614 22.117C169.87 22.4238 169.051 22.5772 168.149 22.5772C167.237 22.5772 166.414 22.4238 165.666 22.117C164.922 21.8102 164.279 21.3779 163.738 20.8108C163.201 20.2437 162.783 19.5558 162.488 18.747C162.193 17.9335 162.043 17.0271 162.043 16.0138C162.043 15.0144 162.193 14.1126 162.488 13.3084C162.783 12.5089 163.201 11.8256 163.738 11.2631C164.275 10.7007 164.918 10.2684 165.666 9.97091C166.414 9.66877 167.242 9.52002 168.149 9.52002ZM168.149 19.7696C168.967 19.7696 169.57 19.4628 169.958 18.8492C170.345 18.2357 170.535 17.3013 170.535 16.0416C170.535 14.7866 170.345 13.8569 169.958 13.248C169.57 12.6391 168.967 12.3323 168.149 12.3323C167.308 12.3323 166.692 12.6391 166.3 13.248C165.908 13.8569 165.714 14.7912 165.714 16.0416C165.714 17.2967 165.908 18.2357 166.3 18.8492C166.692 19.4628 167.308 19.7696 168.149 19.7696Z" fill="white"/>
<path fill-rule="evenodd" clip-rule="evenodd" d="M179.483 9.71484V17.7518C179.483 18.384 179.615 18.8674 179.884 19.2068C180.152 19.5507 180.544 19.7181 181.063 19.7181C181.455 19.7181 181.821 19.6344 182.16 19.4624C182.499 19.2904 182.829 19.0534 183.15 18.7419V9.71484H186.707V22.3816H184.506C184.061 22.3816 183.771 22.1724 183.634 21.7541L183.414 21.0336C183.185 21.266 182.948 21.4752 182.701 21.6657C182.455 21.8563 182.195 22.0144 181.917 22.1492C181.64 22.2793 181.336 22.3862 181.015 22.4606C180.694 22.5396 180.342 22.5768 179.959 22.5768C179.307 22.5768 178.735 22.456 178.233 22.2142C177.731 21.9725 177.309 21.6425 176.965 21.2102C176.622 20.7779 176.362 20.2666 176.186 19.6809C176.01 19.0952 175.922 18.4537 175.922 17.7518V9.71484H179.483Z" fill="white"/>
<path fill-rule="evenodd" clip-rule="evenodd" d="M196.742 12.4901C196.65 12.6435 196.553 12.7504 196.452 12.8155C196.351 12.8805 196.214 12.9131 196.056 12.9131C195.888 12.9131 195.721 12.8712 195.549 12.7969C195.382 12.7178 195.202 12.6388 195.008 12.5505C194.814 12.4622 194.59 12.3739 194.348 12.2995C194.101 12.2205 193.824 12.1833 193.511 12.1833C193.062 12.1833 192.714 12.2763 192.477 12.4575C192.235 12.6388 192.111 12.8945 192.111 13.2199C192.111 13.4569 192.191 13.6522 192.349 13.8056C192.508 13.9636 192.714 14.0984 192.974 14.2146C193.234 14.3308 193.529 14.447 193.859 14.5539C194.189 14.6609 194.524 14.7771 194.867 14.9072C195.21 15.0374 195.549 15.1861 195.875 15.3628C196.205 15.5394 196.5 15.7579 196.76 16.0135C197.02 16.2692 197.231 16.5806 197.385 16.9432C197.544 17.3104 197.618 17.752 197.618 18.2633C197.618 18.8908 197.513 19.4672 197.297 19.9972C197.081 20.5271 196.764 20.9872 196.342 21.3684C195.919 21.7496 195.395 22.0471 194.77 22.2609C194.145 22.4701 193.428 22.577 192.618 22.577C192.213 22.577 191.808 22.5351 191.403 22.4561C190.998 22.3725 190.606 22.2655 190.227 22.1261C189.849 21.9866 189.497 21.8193 189.175 21.6287C188.854 21.4381 188.577 21.2336 188.348 21.0151L189.175 19.616C189.276 19.4486 189.395 19.3231 189.532 19.2302C189.668 19.1326 189.849 19.0861 190.073 19.0861C190.28 19.0861 190.465 19.1326 190.632 19.2302C190.795 19.3278 190.971 19.4347 191.165 19.5463C191.354 19.6625 191.583 19.7647 191.838 19.8623C192.094 19.96 192.415 20.0111 192.807 20.0111C193.084 20.0111 193.318 19.9786 193.507 19.9181C193.696 19.8577 193.85 19.774 193.965 19.6718C194.079 19.5649 194.163 19.4486 194.216 19.3185C194.268 19.1883 194.295 19.0535 194.295 18.9141C194.295 18.6631 194.216 18.4539 194.053 18.2912C193.894 18.1285 193.683 17.9844 193.423 17.8682C193.164 17.752 192.869 17.6404 192.534 17.5382C192.199 17.4359 191.861 17.3244 191.517 17.1942C191.174 17.064 190.835 16.906 190.505 16.7201C190.17 16.5388 189.875 16.3064 189.615 16.0228C189.356 15.7439 189.144 15.3999 188.986 14.9955C188.827 14.5865 188.744 14.0984 188.744 13.5174C188.744 12.9782 188.845 12.4668 189.039 11.9834C189.232 11.5 189.523 11.077 189.915 10.7098C190.307 10.3425 190.795 10.0497 191.385 9.83587C191.975 9.62205 192.662 9.51514 193.45 9.51514C193.877 9.51514 194.295 9.55697 194.695 9.63599C195.096 9.71966 195.47 9.83587 195.822 9.97997C196.175 10.1287 196.496 10.3007 196.786 10.5052C197.077 10.7051 197.332 10.9236 197.557 11.1653L196.742 12.4901Z" fill="white"/>
<path fill-rule="evenodd" clip-rule="evenodd" d="M204.657 9.52002C205.445 9.52002 206.167 9.65017 206.823 9.91048C207.479 10.1708 208.038 10.5473 208.509 11.0447C208.98 11.542 209.345 12.1463 209.609 12.8668C209.873 13.5873 210.001 14.4054 210.001 15.3165C210.001 15.6001 209.988 15.8325 209.966 16.0138C209.944 16.1904 209.9 16.3345 209.838 16.4414C209.777 16.5483 209.697 16.6227 209.592 16.6599C209.49 16.7017 209.354 16.7203 209.196 16.7203H202.337C202.452 17.7801 202.755 18.5517 203.244 19.0305C203.733 19.5047 204.366 19.7464 205.137 19.7464C205.551 19.7464 205.907 19.6952 206.202 19.5883C206.501 19.4814 206.77 19.3652 207.003 19.2304C207.237 19.1003 207.452 18.984 207.646 18.8771C207.84 18.7702 208.042 18.7191 208.258 18.7191C208.54 18.7191 208.755 18.8353 208.901 19.0584L209.935 20.4436C209.57 20.8852 209.174 21.2431 208.751 21.5174C208.328 21.7963 207.893 22.0148 207.444 22.1682C206.994 22.3216 206.55 22.4331 206.101 22.4935C205.652 22.554 205.225 22.5819 204.82 22.5819C203.988 22.5819 203.204 22.4331 202.478 22.1449C201.747 21.8567 201.109 21.4291 200.563 20.8573C200.017 20.2856 199.586 19.5744 199.269 18.7284C198.952 17.8824 198.789 16.8969 198.789 15.772C198.789 14.926 198.926 14.1265 199.198 13.3688C199.471 12.6112 199.859 11.9511 200.369 11.3747C200.88 10.803 201.492 10.3521 202.218 10.022C202.931 9.68736 203.746 9.52002 204.657 9.52002ZM204.723 12.1324C204.041 12.1324 203.512 12.3369 203.129 12.746C202.747 13.155 202.496 13.75 202.372 14.5216H206.814C206.814 14.2195 206.779 13.9266 206.708 13.6431C206.638 13.3596 206.519 13.1039 206.352 12.8761C206.189 12.653 205.969 12.4717 205.7 12.3369C205.432 12.2021 205.106 12.1324 204.723 12.1324Z" fill="white"/>
</g>
<defs>
<clipPath id="clip0_4527_1430">
<rect width="210" height="23" fill="white"/>
</clipPath>
</defs>
</svg>
