<svg width="28" height="28" viewBox="0 0 28 28" fill="none" xmlns="http://www.w3.org/2000/svg">
<path d="M2.86296 9.26286C3.19114 8.93479 3.63617 8.75049 4.10021 8.75049C4.56425 8.75049 5.00929 8.93479 5.33746 9.26286L14 17.9254L22.6625 9.26286C22.9925 8.94409 23.4346 8.7677 23.8934 8.77168C24.3523 8.77567 24.7912 8.95972 25.1156 9.28418C25.4401 9.60865 25.6242 10.0476 25.6281 10.5064C25.6321 10.9653 25.4557 11.4073 25.137 11.7374L15.2372 21.6371C14.909 21.9652 14.464 22.1495 14 22.1495C13.5359 22.1495 13.0909 21.9652 12.7627 21.6371L2.86296 11.7374C2.53489 11.4092 2.35059 10.9642 2.35059 10.5001C2.35059 10.0361 2.53489 9.59104 2.86296 9.26286Z" fill="white"/>
</svg>
