<svg width="21" height="17" viewBox="0 0 21 17" fill="none" xmlns="http://www.w3.org/2000/svg">
<path d="M19.5 1L2 16" stroke="#646464" stroke-width="1.5"/>
<path d="M10.5 3.70109C13.1835 3.70109 15.4539 4.85315 16.8895 5.82274C18.588 6.96936 19.4604 8.07785 19.6886 8.5C19.4604 8.92215 18.588 10.0334 16.8895 11.18C15.4568 12.1468 13.1864 13.3016 10.5 13.3016C7.81651 13.3016 5.54319 12.1496 4.11045 11.18C2.41197 10.0334 1.53961 8.92488 1.31142 8.5C1.53961 8.07785 2.41197 6.96936 4.11045 5.82274C5.54319 4.85315 7.81651 3.70109 10.5 3.70109ZM10.5 2.5C4.69972 2.5 0 7.29891 0 8.5C0 9.70109 4.69972 14.5 10.5 14.5C16.2974 14.5 21 9.70109 21 8.5C21 7.29891 16.2974 2.5 10.5 2.5ZM10.5 4.89946C8.39133 4.89946 6.68129 6.5118 6.68129 8.5C6.68129 10.4882 8.39133 12.1005 10.5 12.1005C12.6087 12.1005 14.3187 10.4882 14.3187 8.5C14.3187 6.5118 12.6087 4.89946 10.5 4.89946ZM9.47166 8.5C8.57909 8.5 7.85695 7.81911 7.85695 6.97753C7.85695 6.13595 8.57909 5.45506 9.47166 5.45506C10.3642 5.45506 11.0864 6.13595 11.0864 6.97753C11.0864 7.81911 10.3642 8.5 9.47166 8.5Z" fill="#646464"/>
</svg>
