<svg width="82" height="82" viewBox="0 0 82 82" fill="none" xmlns="http://www.w3.org/2000/svg">
<path d="M47.2494 64.9157C46.739 64.9175 46.2347 64.8048 45.7735 64.5861C45.3123 64.3673 44.906 64.048 44.5844 63.6516L28.0819 43.1516C27.5794 42.5402 27.3047 41.7734 27.3047 40.982C27.3047 40.1906 27.5794 39.4238 28.0819 38.8124L45.1653 18.3124C45.7452 17.6147 46.5786 17.1759 47.482 17.0926C48.3855 17.0093 49.285 17.2883 49.9828 17.8682C50.6805 18.4482 51.1193 19.2815 51.2026 20.185C51.2859 21.0885 51.0069 21.988 50.4269 22.6857L35.1544 40.9991L49.9144 59.3124C50.3322 59.8139 50.5976 60.4246 50.6792 61.0722C50.7608 61.7199 50.6552 62.3773 50.3748 62.9668C50.0945 63.5563 49.6511 64.0531 49.0972 64.3985C48.5434 64.7439 47.9021 64.9234 47.2494 64.9157Z" fill="black"/>
</svg>
