<svg width="33" height="31" viewBox="0 0 33 31" fill="none" xmlns="http://www.w3.org/2000/svg">
<path d="M16.2221 22.0611C16.2551 22.1032 16.2973 22.1372 16.3454 22.1607C16.3936 22.1841 16.4464 22.1962 16.5 22.1962C16.5536 22.1962 16.6064 22.1841 16.6546 22.1607C16.7027 22.1372 16.7449 22.1032 16.7779 22.0611L21.7191 15.8214C21.9 15.5925 21.7368 15.2534 21.4412 15.2534H18.1721V0.352273C18.1721 0.158523 18.0132 0 17.8191 0H15.1721C14.9779 0 14.8191 0.158523 14.8191 0.352273V15.249H11.5588C11.2632 15.249 11.1 15.5881 11.2809 15.817L16.2221 22.0611ZM32.6471 20.5199H30C29.8059 20.5199 29.6471 20.6784 29.6471 20.8722V27.6534H3.35294V20.8722C3.35294 20.6784 3.19412 20.5199 3 20.5199H0.352941C0.158824 20.5199 0 20.6784 0 20.8722V29.5909C0 30.3703 0.630882 31 1.41176 31H31.5882C32.3691 31 33 30.3703 33 29.5909V20.8722C33 20.6784 32.8412 20.5199 32.6471 20.5199Z" fill="#16844C"/>
</svg>
