<svg width="25" height="28" viewBox="0 0 25 28" fill="none" xmlns="http://www.w3.org/2000/svg">
<path d="M8.92857 21.875C8.92857 22.3563 8.52679 22.75 8.03571 22.75C7.54464 22.75 7.14286 22.3563 7.14286 21.875V10.5C7.14286 10.0188 7.54464 9.625 8.03571 9.625C8.52679 9.625 8.92857 10.0188 8.92857 10.5V21.875ZM13.3929 21.875C13.3929 22.3563 12.9911 22.75 12.5 22.75C12.0089 22.75 11.6071 22.3563 11.6071 21.875V10.5C11.6071 10.0188 12.0089 9.625 12.5 9.625C12.9911 9.625 13.3929 10.0188 13.3929 10.5V21.875ZM17.8571 21.875C17.8571 22.3563 17.4554 22.75 16.9643 22.75C16.4732 22.75 16.0714 22.3563 16.0714 21.875V10.5C16.0714 10.0188 16.4732 9.625 16.9643 9.625C17.4554 9.625 17.8571 10.0188 17.8571 10.5V21.875ZM17.7176 1.36391L19.7656 4.375H23.6607C24.4029 4.375 25 4.96289 25 5.6875C25 6.41484 24.4029 7 23.6607 7H23.2143V23.625C23.2143 26.0422 21.2165 28 18.75 28H6.25C3.7846 28 1.78571 26.0422 1.78571 23.625V7H1.33929C0.599888 7 0 6.41484 0 5.6875C0 4.96289 0.599888 4.375 1.33929 4.375H5.23549L7.28237 1.36391C7.86272 0.511711 8.83929 0 9.88281 0H15.1172C16.1607 0 17.1373 0.511766 17.7176 1.36391ZM8.45424 4.375H16.5458L15.4855 2.81969C15.4018 2.69828 15.2623 2.625 15.1172 2.625H9.88281C9.73772 2.625 9.54799 2.69828 9.51451 2.81969L8.45424 4.375ZM4.46429 23.625C4.46429 24.593 5.26395 25.375 6.25 25.375H18.75C19.7377 25.375 20.5357 24.593 20.5357 23.625V7H4.46429V23.625Z" fill="#EA3030"/>
</svg>
