<svg width="15" height="12" viewBox="0 0 15 12" fill="none" xmlns="http://www.w3.org/2000/svg">
<path d="M14.0625 0H0.9375C0.68886 0 0.450403 0.105357 0.274587 0.292893C0.098772 0.48043 0 0.734784 0 1V11C0 11.2652 0.098772 11.5196 0.274587 11.7071C0.450403 11.8946 0.68886 12 0.9375 12H14.0625C14.3111 12 14.5496 11.8946 14.7254 11.7071C14.9012 11.5196 15 11.2652 15 11V1C15 0.734784 14.9012 0.48043 14.7254 0.292893C14.5496 0.105357 14.3111 0 14.0625 0ZM14.0625 1V7H0.9375V1H14.0625ZM0.9375 11V9H14.0625V11H0.9375Z" fill="#646464"/>
</svg>
