<svg width="17" height="17" viewBox="0 0 17 17" fill="none" xmlns="http://www.w3.org/2000/svg">
<path d="M12.7531 5.1002C12.7531 5.32563 12.6636 5.54183 12.5042 5.70124C12.3448 5.86064 12.1286 5.9502 11.9031 5.9502C11.6777 5.9502 11.4615 5.86064 11.3021 5.70124C11.1427 5.54183 11.0531 5.32563 11.0531 5.1002C11.0531 4.87476 11.1427 4.65856 11.3021 4.49915C11.4615 4.33975 11.6777 4.2502 11.9031 4.2502C12.1286 4.2502 12.3448 4.33975 12.5042 4.49915C12.6636 4.65856 12.7531 4.87476 12.7531 5.1002ZM10.6281 1.7002C8.01352 1.7002 5.95312 3.7606 5.95312 6.3752C5.95312 6.71265 5.98712 7.0518 6.05683 7.37395C6.10612 7.60345 6.05002 7.80234 5.93612 7.91624L2.07713 11.7752C1.95849 11.8937 1.8644 12.0344 1.80022 12.1893C1.73604 12.3442 1.70305 12.5103 1.70313 12.6779V14.0252C1.70313 14.3633 1.83746 14.6876 2.07656 14.9268C2.31567 15.1659 2.63997 15.3002 2.97813 15.3002H4.67813C5.01628 15.3002 5.34058 15.1659 5.57969 14.9268C5.8188 14.6876 5.95312 14.3633 5.95312 14.0252V13.6002H6.80312C7.02856 13.6002 7.24476 13.5106 7.40417 13.3512C7.56357 13.1918 7.65312 12.9756 7.65312 12.7502V11.9002H8.50312C8.72856 11.9002 8.94476 11.8106 9.10417 11.6512C9.26357 11.4918 9.35312 11.2756 9.35312 11.0502V10.8972C9.77217 11.0111 10.2091 11.0502 10.6281 11.0502C13.2427 11.0502 15.3031 8.9898 15.3031 6.3752C15.3031 3.7606 13.2427 1.7002 10.6281 1.7002ZM6.80312 6.3752C6.80312 4.2298 8.48272 2.5502 10.6281 2.5502C12.7735 2.5502 14.4531 4.2298 14.4531 6.3752C14.4531 8.5206 12.7735 10.2002 10.6281 10.2002C10.0671 10.2002 9.54607 10.1194 9.11852 9.90524C9.05373 9.87278 8.98171 9.85742 8.90931 9.86063C8.8369 9.86384 8.76652 9.88551 8.70485 9.92358C8.64319 9.96165 8.59228 10.0149 8.55697 10.0782C8.52166 10.1414 8.50313 10.2127 8.50312 10.2852V11.0502H7.65312C7.42769 11.0502 7.21149 11.1397 7.05208 11.2992C6.89268 11.4586 6.80312 11.6748 6.80312 11.9002V12.7502H5.95312C5.72769 12.7502 5.51149 12.8397 5.35208 12.9992C5.19268 13.1586 5.10312 13.3748 5.10312 13.6002V14.0252C5.10312 14.1379 5.05835 14.246 4.97865 14.3257C4.89894 14.4054 4.79084 14.4502 4.67813 14.4502H2.97813C2.86541 14.4502 2.75731 14.4054 2.6776 14.3257C2.5979 14.246 2.55313 14.1379 2.55313 14.0252V12.6771C2.55315 12.5646 2.59778 12.4567 2.67722 12.377L6.53707 8.5172C6.90427 8.15 6.98077 7.6298 6.88727 7.19459C6.83057 6.92517 6.80237 6.65052 6.80312 6.3752Z" fill="#646464"/>
</svg>
