<svg width="23" height="23" viewBox="0 0 23 23" fill="none" xmlns="http://www.w3.org/2000/svg">
<path d="M11.5 1.4375C5.94316 1.4375 1.4375 5.94316 1.4375 11.5C1.4375 17.0568 5.94316 21.5625 11.5 21.5625C17.0568 21.5625 21.5625 17.0568 21.5625 11.5C21.5625 5.94316 17.0568 1.4375 11.5 1.4375ZM11.5 17.3398C11.0036 17.3398 10.6016 16.9378 10.6016 16.4414C10.6016 15.945 11.0036 15.543 11.5 15.543C11.9964 15.543 12.3984 15.945 12.3984 16.4414C12.3984 16.9378 11.9964 17.3398 11.5 17.3398ZM12.9128 12.4097C12.7094 12.4882 12.5344 12.6262 12.4106 12.8057C12.2868 12.9852 12.2199 13.1979 12.2188 13.4159V13.9258C12.2188 14.0246 12.1379 14.1055 12.0391 14.1055H10.9609C10.8621 14.1055 10.7812 14.0246 10.7812 13.9258V13.4429C10.7812 12.924 10.9317 12.4119 11.2282 11.9852C11.518 11.5674 11.9223 11.2484 12.3984 11.0665C13.1621 10.7723 13.6562 10.1321 13.6562 9.43359C13.6562 8.44307 12.6882 7.63672 11.5 7.63672C10.3118 7.63672 9.34375 8.44307 9.34375 9.43359V9.6043C9.34375 9.70312 9.26289 9.78398 9.16406 9.78398H8.08594C7.98711 9.78398 7.90625 9.70312 7.90625 9.6043V9.43359C7.90625 8.55088 8.29258 7.72656 8.99336 7.11338C9.66719 6.52266 10.5566 6.19922 11.5 6.19922C12.4434 6.19922 13.3328 6.5249 14.0066 7.11338C14.7074 7.72656 15.0938 8.55088 15.0938 9.43359C15.0938 10.7318 14.238 11.8998 12.9128 12.4097Z" fill="#646464"/>
</svg>
