<svg width="19" height="19" viewBox="0 0 19 19" fill="none" xmlns="http://www.w3.org/2000/svg">
<path d="M3.56246 17.2188H3.6634C15.3306 16.5478 16.9871 6.70344 17.2187 3.69906C17.2374 3.46547 17.2098 3.23049 17.1374 3.00759C17.0651 2.78469 16.9495 2.57824 16.7973 2.40009C16.6451 2.22193 16.4592 2.07556 16.2503 1.96937C16.0414 1.86318 15.8136 1.79925 15.58 1.78125H12.3084C12.0706 1.78102 11.8381 1.85221 11.6412 1.9856C11.4443 2.11898 11.292 2.30842 11.204 2.52938L10.3015 4.75C10.2146 4.96586 10.1931 5.20248 10.2395 5.43049C10.286 5.6585 10.3984 5.86784 10.5628 6.0325L11.8275 7.30906C11.6299 8.43169 11.0923 9.46655 10.2873 10.2736C9.48238 11.0807 8.44894 11.6211 7.32683 11.8216L6.0384 10.545C5.87126 10.3824 5.65995 10.2726 5.43082 10.2293C5.2017 10.186 4.9649 10.2112 4.74996 10.3016L2.51152 11.1981C2.2939 11.2889 2.10823 11.4424 1.97817 11.6391C1.84811 11.8358 1.77954 12.0667 1.78121 12.3025V15.4375C1.78121 15.9099 1.96888 16.363 2.30293 16.697C2.63697 17.0311 3.09004 17.2188 3.56246 17.2188ZM15.4375 2.96875C15.5949 2.96875 15.746 3.03131 15.8573 3.14266C15.9687 3.25401 16.0312 3.40503 16.0312 3.5625V3.61C15.7581 7.125 14.0065 15.4375 3.59808 16.0312C3.52008 16.0361 3.44189 16.0254 3.36801 16C3.29412 15.9745 3.22598 15.9347 3.16751 15.8829C3.10904 15.831 3.06138 15.7681 3.02726 15.6978C2.99315 15.6275 2.97325 15.5511 2.96871 15.4731V12.3025L5.20715 11.4059L6.91121 13.0981L7.19621 13.0625C12.3618 12.4153 13.0625 7.24969 13.0625 7.19625L13.0981 6.91125L11.4118 5.20719L12.3025 2.96875H15.4375Z" fill="#646464"/>
</svg>
