<svg width="37" height="37" viewBox="0 0 37 37" fill="none" xmlns="http://www.w3.org/2000/svg">
<path fill-rule="evenodd" clip-rule="evenodd" d="M0.87836 1.87876C1.44094 1.31634 2.20387 1.0004 2.99936 1.0004C3.79485 1.0004 4.55778 1.31634 5.12036 1.87876L17.9994 14.7578L30.8784 1.87876C31.1551 1.59223 31.4861 1.36368 31.8521 1.20645C32.2182 1.04922 32.6118 0.966465 33.0102 0.963004C33.4085 0.959542 33.8035 1.03545 34.1722 1.18629C34.5409 1.33713 34.8759 1.55989 35.1575 1.84157C35.4392 2.12325 35.662 2.4582 35.8128 2.82689C35.9637 3.19558 36.0396 3.59062 36.0361 3.98896C36.0327 4.3873 35.9499 4.78096 35.7927 5.14697C35.6354 5.51298 35.4069 5.84401 35.1204 6.12075L22.2414 18.9998L35.1204 31.8788C35.6668 32.4446 35.9692 33.2024 35.9624 33.989C35.9555 34.7755 35.64 35.528 35.0838 36.0842C34.5276 36.6404 33.7752 36.9559 32.9886 36.9628C32.202 36.9696 31.4442 36.6672 30.8784 36.1208L17.9994 23.2418L5.12036 36.1208C4.55455 36.6672 3.79675 36.9696 3.01016 36.9628C2.22357 36.9559 1.47113 36.6404 0.914904 36.0842C0.358679 35.528 0.0431717 34.7755 0.0363364 33.989C0.0295012 33.2024 0.331886 32.4446 0.87836 31.8788L13.7574 18.9998L0.87836 6.12075C0.315947 5.55817 0 4.79525 0 3.99976C0 3.20426 0.315947 2.44134 0.87836 1.87876Z" fill="#EA3030"/>
</svg>
