<svg width="25" height="27" viewBox="0 0 25 27" fill="none" xmlns="http://www.w3.org/2000/svg">
<g filter="url(#filter0_d_860_105)">
<path d="M19.2223 4.44434H14.7778V5.55545H19.2223V17.2221H14.7778V18.3332H20.3334V5.55545C20.3334 5.26076 20.2163 4.97815 20.008 4.76977C19.7996 4.5614 19.517 4.44434 19.2223 4.44434Z" fill="#646464"/>
<path d="M13.0444 1.66699H5.39995C5.08758 1.66699 4.78801 1.79108 4.56713 2.01196C4.34625 2.23283 4.22217 2.5324 4.22217 2.84477V18.3337H14.2222V2.84477C14.2222 2.5324 14.0981 2.23283 13.8772 2.01196C13.6563 1.79108 13.3568 1.66699 13.0444 1.66699ZM13.1111 17.2225H11.4444V15.5559H6.99995V17.2225H5.33328V2.84477C5.33328 2.83601 5.335 2.82735 5.33835 2.81926C5.3417 2.81117 5.34661 2.80382 5.35281 2.79763C5.359 2.79144 5.36635 2.78653 5.37443 2.78318C5.38252 2.77983 5.39119 2.7781 5.39995 2.7781H13.0444C13.0531 2.7781 13.0618 2.77983 13.0699 2.78318C13.078 2.78653 13.0853 2.79144 13.0915 2.79763C13.0977 2.80382 13.1026 2.81117 13.106 2.81926C13.1093 2.82735 13.1111 2.83601 13.1111 2.84477V17.2225Z" fill="#646464"/>
<path d="M6.44434 4.44434H7.55545V5.55545H6.44434V4.44434Z" fill="#646464"/>
<path d="M8.66675 4.44434H9.77786V5.55545H8.66675V4.44434Z" fill="#646464"/>
<path d="M10.8889 4.44434H12V5.55545H10.8889V4.44434Z" fill="#646464"/>
<path d="M6.44434 7.22266H7.55545V8.33377H6.44434V7.22266Z" fill="#646464"/>
<path d="M8.66675 7.22266H9.77786V8.33377H8.66675V7.22266Z" fill="#646464"/>
<path d="M10.8889 7.22266H12V8.33377H10.8889V7.22266Z" fill="#646464"/>
<path d="M6.44434 10H7.55545V11.1111H6.44434V10Z" fill="#646464"/>
<path d="M8.66675 10H9.77786V11.1111H8.66675V10Z" fill="#646464"/>
<path d="M10.8889 10H12V11.1111H10.8889V10Z" fill="#646464"/>
<path d="M6.44434 12.7773H7.55545V13.8885H6.44434V12.7773Z" fill="#646464"/>
<path d="M8.66675 12.7773H9.77786V13.8885H8.66675V12.7773Z" fill="#646464"/>
<path d="M10.8889 12.7773H12V13.8885H10.8889V12.7773Z" fill="#646464"/>
<path d="M14.7778 7.22266H15.8889V8.33377H14.7778V7.22266Z" fill="#646464"/>
<path d="M17 7.22266H18.1111V8.33377H17V7.22266Z" fill="#646464"/>
<path d="M14.7778 10H15.8889V11.1111H14.7778V10Z" fill="#646464"/>
<path d="M17 10H18.1111V11.1111H17V10Z" fill="#646464"/>
<path d="M14.7778 12.7773H15.8889V13.8885H14.7778V12.7773Z" fill="#646464"/>
<path d="M17 12.7773H18.1111V13.8885H17V12.7773Z" fill="#646464"/>
</g>
<defs>
<filter id="filter0_d_860_105" x="-2" y="0" width="28" height="28" filterUnits="userSpaceOnUse" color-interpolation-filters="sRGB">
<feFlood flood-opacity="0" result="BackgroundImageFix"/>
<feColorMatrix in="SourceAlpha" type="matrix" values="0 0 0 0 0 0 0 0 0 0 0 0 0 0 0 0 0 0 127 0" result="hardAlpha"/>
<feOffset dy="4"/>
<feGaussianBlur stdDeviation="2"/>
<feComposite in2="hardAlpha" operator="out"/>
<feColorMatrix type="matrix" values="0 0 0 0 0 0 0 0 0 0 0 0 0 0 0 0 0 0 0.25 0"/>
<feBlend mode="normal" in2="BackgroundImageFix" result="effect1_dropShadow_860_105"/>
<feBlend mode="normal" in="SourceGraphic" in2="effect1_dropShadow_860_105" result="shape"/>
</filter>
</defs>
</svg>
