<svg width="14" height="13" viewBox="0 0 14 13" fill="none" xmlns="http://www.w3.org/2000/svg">
<path d="M13.44 1.17H10.5V0.13C10.5 0.0585 10.437 0 10.36 0H9.38C9.303 0 9.24 0.0585 9.24 0.13V1.17H4.76V0.13C4.76 0.0585 4.697 0 4.62 0H3.64C3.563 0 3.5 0.0585 3.5 0.13V1.17H0.56C0.25025 1.17 0 1.40237 0 1.69V12.48C0 12.7676 0.25025 13 0.56 13H13.44C13.7498 13 14 12.7676 14 12.48V1.69C14 1.40237 13.7498 1.17 13.44 1.17ZM12.74 11.83H1.26V5.655H12.74V11.83ZM1.26 4.55V2.34H3.5V3.12C3.5 3.1915 3.563 3.25 3.64 3.25H4.62C4.697 3.25 4.76 3.1915 4.76 3.12V2.34H9.24V3.12C9.24 3.1915 9.303 3.25 9.38 3.25H10.36C10.437 3.25 10.5 3.1915 10.5 3.12V2.34H12.74V4.55H1.26Z" fill="#646464"/>
</svg>
