<svg width="18" height="18" viewBox="0 0 18 18" fill="none" xmlns="http://www.w3.org/2000/svg">
<path d="M8.927 4.48535C8.48199 4.48535 8.04698 4.61731 7.67697 4.86454C7.30696 5.11178 7.01857 5.46318 6.84827 5.87431C6.67798 6.28545 6.63342 6.73785 6.72024 7.1743C6.80705 7.61076 7.02134 8.01167 7.33601 8.32634C7.65068 8.64101 8.05159 8.8553 8.48805 8.94212C8.92451 9.02893 9.37691 8.98438 9.78804 8.81408C10.1992 8.64378 10.5506 8.3554 10.7978 7.98538C11.045 7.61537 11.177 7.18036 11.177 6.73535C11.1763 6.13882 10.9391 5.56692 10.5172 5.14511C10.0954 4.7233 9.52353 4.48603 8.927 4.48535ZM8.927 7.86035C8.7045 7.86035 8.48699 7.79437 8.30199 7.67075C8.11698 7.54714 7.97279 7.37144 7.88764 7.16587C7.80249 6.9603 7.78021 6.7341 7.82362 6.51587C7.86703 6.29765 7.97417 6.09719 8.13151 5.93986C8.28884 5.78252 8.4893 5.67538 8.70753 5.63197C8.92575 5.58856 9.15195 5.61084 9.35752 5.69599C9.56309 5.78114 9.73879 5.92533 9.86241 6.11033C9.98602 6.29534 10.052 6.51285 10.052 6.73535C10.0517 7.03361 9.93302 7.31956 9.72212 7.53047C9.51121 7.74137 9.22527 7.86001 8.927 7.86035Z" fill="#646464"/>
<path d="M13.2507 2.4085C12.1817 1.33977 10.7547 0.704894 9.24514 0.626416C7.73557 0.547938 6.25043 1.03142 5.07637 1.98354C3.9023 2.93567 3.12254 4.28894 2.88757 5.78218C2.6526 7.27541 2.97909 8.80276 3.80402 10.0694L8.05465 16.5949C8.14925 16.7401 8.27858 16.8594 8.43094 16.942C8.58329 17.0246 8.75385 17.0678 8.92714 17.0678C9.10044 17.0678 9.271 17.0246 9.42335 16.942C9.57571 16.8594 9.70504 16.7401 9.79963 16.5949L14.0504 10.0694C14.8158 8.89441 15.1541 7.49198 15.0085 6.09721C14.8629 4.70245 14.2423 3.40011 13.2507 2.4085ZM13.1078 9.45536L8.92716 15.8731L4.74649 9.45536C3.4668 7.49086 3.74126 4.86188 5.39909 3.20398C5.8624 2.74066 6.41243 2.37313 7.01778 2.12238C7.62313 1.87164 8.27194 1.74258 8.92716 1.74258C9.58239 1.74258 10.2312 1.87164 10.8365 2.12238C11.4419 2.37313 11.9919 2.74066 12.4552 3.20398C14.1131 4.86188 14.3875 7.49086 13.1078 9.45536Z" fill="#646464"/>
</svg>
