<svg width="90" height="90" viewBox="0 0 90 90" fill="none" xmlns="http://www.w3.org/2000/svg">
<path fill-rule="evenodd" clip-rule="evenodd" d="M45 3.75C22.2188 3.75 3.75 22.2188 3.75 45C3.75 67.7812 22.2188 86.25 45 86.25C67.7812 86.25 86.25 67.7812 86.25 45C86.25 22.2188 67.7812 3.75 45 3.75ZM48.75 26.25C48.75 25.2554 48.3549 24.3016 47.6516 23.5984C46.9484 22.8951 45.9946 22.5 45 22.5C44.0054 22.5 43.0516 22.8951 42.3484 23.5984C41.6451 24.3016 41.25 25.2554 41.25 26.25V48.75C41.25 49.7446 41.6451 50.6984 42.3484 51.4016C43.0516 52.1049 44.0054 52.5 45 52.5C45.9946 52.5 46.9484 52.1049 47.6516 51.4016C48.3549 50.6984 48.75 49.7446 48.75 48.75V26.25ZM48.75 61.875C48.75 60.8804 48.3549 59.9266 47.6516 59.2234C46.9484 58.5201 45.9946 58.125 45 58.125C44.0054 58.125 43.0516 58.5201 42.3484 59.2234C41.6451 59.9266 41.25 60.8804 41.25 61.875V63.75C41.25 64.7446 41.6451 65.6984 42.3484 66.4017C43.0516 67.1049 44.0054 67.5 45 67.5C45.9946 67.5 46.9484 67.1049 47.6516 66.4017C48.3549 65.6984 48.75 64.7446 48.75 63.75V61.875Z" fill="#4ECB71"/>
</svg>
