<svg width="24" height="24" viewBox="0 0 24 24" fill="none" xmlns="http://www.w3.org/2000/svg">
<path d="M12 0C5.3725 0 0 5.3725 0 12C0 18.6275 5.3725 24 12 24C18.6275 24 24 18.6275 24 12C24 5.3725 18.6275 0 12 0Z" fill="#283C6B"/>
<path d="M9.49375 17.21H7.06375V9.39H9.49375V17.21ZM8.26375 8.43C7.49625 8.43 7 7.88625 7 7.21375C7 6.5275 7.51125 6 8.295 6C9.07875 6 9.55875 6.5275 9.57375 7.21375C9.57375 7.88625 9.07875 8.43 8.26375 8.43ZM18.3688 17.21H15.9388V12.8762C15.9388 11.8675 15.5863 11.1825 14.7075 11.1825C14.0363 11.1825 13.6375 11.6463 13.4613 12.0925C13.3963 12.2513 13.38 12.4763 13.38 12.7V17.2087H10.9488V11.8838C10.9488 10.9075 10.9175 10.0912 10.885 9.38875H12.9962L13.1075 10.475H13.1562C13.4763 9.965 14.26 9.2125 15.5713 9.2125C17.17 9.2125 18.3688 10.2837 18.3688 12.5862V17.21Z" fill="#C2C5CB"/>
</svg>
