<svg width="14" height="14" viewBox="0 0 14 14" fill="none" xmlns="http://www.w3.org/2000/svg">
<path d="M13.38 5.35C13.48 5.35 13.56 5.39 13.62 5.47C13.7 5.53 13.74 5.61 13.74 5.71V7.99C13.74 8.09 13.7 8.18 13.62 8.26C13.56 8.32 13.48 8.35 13.38 8.35H9C8.9 8.35 8.85 8.4 8.85 8.5V12.82C8.85 12.92 8.81 13.01 8.73 13.09C8.67 13.15 8.59 13.18 8.49 13.18H6.24C6.14 13.18 6.05 13.15 5.97 13.09C5.91 13.01 5.88 12.92 5.88 12.82V8.5C5.88 8.4 5.83 8.35 5.73 8.35H1.32C1.22 8.35 1.13 8.32 1.05 8.26C0.99 8.18 0.96 8.09 0.96 7.99V5.71C0.96 5.61 0.99 5.53 1.05 5.47C1.13 5.39 1.22 5.35 1.32 5.35H5.73C5.83 5.35 5.88 5.3 5.88 5.2V0.76C5.88 0.66 5.91 0.579999 5.97 0.519999C6.05 0.439999 6.14 0.399999 6.24 0.399999H8.49C8.59 0.399999 8.67 0.439999 8.73 0.519999C8.81 0.579999 8.85 0.66 8.85 0.76V5.2C8.85 5.3 8.9 5.35 9 5.35H13.38Z" fill="#16844C"/>
</svg>
